<?xml version="1.0" encoding="utf-8"?>

<!DOCTYPE svg PUBLIC "-//W3C//DTD SVG 1.1//EN" "http://www.w3.org/Graphics/SVG/1.1/DTD/svg11.dtd">
<svg version="1.1" id="Layer_1" xmlns="http://www.w3.org/2000/svg" xmlns:xlink="http://www.w3.org/1999/xlink" x="0px" y="0px"
	 viewBox="0 0 1673.863 1665.381" enable-background="new 0 0 1673.863 1665.381" xml:space="preserve">
<g>
	<path d="M1174.339,282.993c18.025-16.449,29.086-27.057,33.182-31.83c12.657-15.11,18.061-28.468,16.224-40.065
		c-0.15-0.949-1.979-4.846-5.492-11.689c-3.507-6.845-5.623-12.516-6.335-17.016l-1.631-10.298
		c6.816-4.475,13.511-8.931,20.088-13.374c6.629-5.657,10.645-12.482,12.047-20.473c6.168,17.469,10.222,32.361,12.171,44.668
		c1.312,8.284,0.42,18.738-2.677,31.366c-2.77,11.598-6.42,21.522-10.939,29.763c-3.399,6.118-10.783,15.416-22.155,27.899
		c-12.601,13.884-21.154,21.188-25.654,21.901c-0.943,0.149-3.968-1.317-9.068-4.388
		C1180.845,287.298,1177.592,285.146,1174.339,282.993z M921.621,193.274c9.776-22.358,15.566-36.548,17.367-42.574
		c5.417-18.952,4.921-33.353-1.474-43.2c-0.523-0.806-3.779-3.622-9.771-8.445c-5.988-4.826-10.227-9.147-12.709-12.968
		l-5.679-8.745c4.407-6.861,8.71-13.654,12.911-20.388c3.755-7.864,4.648-15.732,2.678-23.603
		c12.74,13.45,22.5,25.405,29.287,35.856c4.568,7.034,8.005,16.947,10.313,29.743c2.187,11.723,2.889,22.272,2.112,31.639
		c-0.617,6.972-3.58,18.469-8.892,34.498c-5.865,17.809-10.707,27.96-14.528,30.441c-0.801,0.52-4.161,0.411-10.069-0.321
		C929.316,194.56,925.469,193.917,921.621,193.274z M654.26,214.1c-0.163-24.402-0.645-39.72-1.451-45.957
		c-2.759-19.516-9.07-32.47-18.918-38.865c-0.806-0.523-4.925-1.772-12.361-3.74c-7.433-1.974-13.063-4.196-16.884-6.678
		l-8.745-5.679c1.235-8.06,2.403-16.017,3.502-23.877c0.232-8.712-2.153-16.262-7.154-22.652
		c17.109,7.105,30.888,14.057,41.339,20.844c7.034,4.568,14.206,12.226,21.519,22.977c6.766,9.82,11.698,19.172,14.798,28.045
		c2.272,6.62,4.241,18.328,5.908,35.133c1.886,18.654,1.591,29.898-0.89,33.719c-0.52,0.801-3.634,2.068-9.329,3.802
		C661.813,212.146,658.037,213.123,654.26,214.1z M418.485,341.872c-10.074-22.226-16.745-36.023-20.018-41.394
		c-10.459-16.707-21.493-25.974-33.09-27.811c-0.949-0.15-5.22,0.385-12.814,1.611c-7.593,1.22-13.641,1.48-18.141,0.767
		l-10.298-1.631c-2.15-7.866-4.319-15.609-6.512-23.237c-3.332-8.053-8.581-13.981-15.749-17.784
		c18.52-0.468,33.936,0.278,46.243,2.228c8.284,1.312,17.95,5.391,29.004,12.238c10.175,6.219,18.485,12.756,24.926,19.601
		c4.768,5.124,11.329,15.019,19.687,29.692c9.31,16.275,13.614,26.666,12.901,31.166c-0.149,0.943-2.479,3.367-6.976,7.268
		C424.59,337.014,421.537,339.443,418.485,341.872z M255.063,554.495c-18.243-16.207-29.949-26.098-35.124-29.673
		c-16.35-11.008-30.2-14.986-41.541-11.947c-0.928,0.249-4.612,2.475-11.051,6.683c-6.44,4.203-11.86,6.9-16.261,8.079
		l-10.072,2.699c-5.163-6.311-10.295-12.503-15.401-18.579c-6.319-6.001-13.526-9.282-21.62-9.84
		c16.729-7.96,31.115-13.548,43.151-16.773c8.102-2.171,18.591-2.376,31.474-0.617c11.825,1.543,22.075,4.135,30.743,7.768
		c6.44,2.741,16.458,9.112,30.062,19.118c15.125,11.081,23.283,18.823,24.462,23.224c0.247,0.923-0.895,4.084-3.416,9.477
		C258.664,547.574,256.863,551.035,255.063,554.495z M192.251,815.206c-23.258-7.385-37.975-11.661-44.156-12.821
		c-19.414-3.407-33.684-1.407-42.809,5.982c-0.747,0.605-3.207,4.137-7.377,10.601c-4.174,6.46-8.028,11.127-11.569,13.995
		l-8.103,6.562c-7.284-3.665-14.49-7.235-21.626-10.709c-8.214-2.912-16.132-2.978-23.754-0.196
		c12.045-14.076,22.914-25.033,32.598-32.874c6.518-5.278,16.018-9.732,28.502-13.365c11.43-3.4,21.849-5.201,31.245-5.408
		c6.998-0.115,18.742,1.63,35.239,5.238c18.324,3.971,28.926,7.726,31.793,11.266c0.601,0.742,0.844,4.095,0.733,10.047
		C192.726,807.419,192.488,811.313,192.251,815.206z M240.91,1078.925c-24.251,2.713-39.435,4.793-45.553,6.247
		c-19.121,4.784-31.344,12.415-36.675,22.877c-0.436,0.856-1.247,5.083-2.428,12.685c-1.186,7.599-2.808,13.431-4.876,17.49
		l-4.734,9.29c-8.145-0.386-16.18-0.716-24.112-0.987c-8.688,0.68-15.948,3.841-21.78,9.483
		c5.278-17.758,10.752-32.189,16.409-43.291c3.808-7.473,10.674-15.406,20.602-23.803c9.059-7.755,17.844-13.638,26.344-17.649
		c6.346-2.952,17.785-6.134,34.323-9.548c18.355-3.825,29.567-4.708,33.627-2.639c0.851,0.433,2.436,3.398,4.757,8.88
		C238.177,1071.618,239.543,1075.272,240.91,1078.925z M392.627,1300.053c-21.051,12.342-34.076,20.418-39.074,24.235
		c-15.522,12.148-23.585,24.09-24.2,35.816c-0.05,0.959,0.928,5.151,2.941,12.576c2.007,7.424,2.898,13.411,2.659,17.961
		l-0.546,10.413c-7.598,2.96-15.072,5.927-22.429,8.906c-7.66,4.155-13.007,9.996-16.04,17.521
		c-2.401-18.37-3.27-33.779-2.618-46.222c0.439-8.376,3.485-18.416,9.14-30.124c5.121-10.769,10.754-19.717,16.888-26.838
		c4.597-5.278,13.752-12.837,27.472-22.683c15.212-10.96,25.096-16.327,29.646-16.088c0.954,0.05,3.608,2.113,7.957,6.178
		C387.158,1294.49,389.892,1297.272,392.627,1300.053z M621.168,1440.355c-14.211,19.837-22.825,32.513-25.839,38.033
		c-9.239,17.411-11.747,31.601-7.54,42.562c0.344,0.897,2.943,4.328,7.802,10.292c4.854,5.966,8.102,11.073,9.735,15.327
		l3.737,9.734c-5.737,5.795-11.358,11.545-16.868,17.258c-5.308,6.912-7.817,14.422-7.527,22.531
		c-9.665-15.805-16.727-29.528-21.192-41.161c-3.006-7.83-4.306-18.241-3.903-31.237c0.298-11.921,1.805-22.386,4.512-31.387
		c2.053-6.691,7.342-17.321,15.871-31.896c9.439-16.2,16.286-25.123,20.54-26.756c0.892-0.342,4.155,0.463,9.782,2.407
		C613.909,1437.497,617.538,1438.926,621.168,1440.355z M887.016,1475.571c-4.914,23.902-7.627,38.986-8.136,45.254
		c-1.359,19.664,2.121,33.647,10.424,41.949c0.679,0.679,4.449,2.757,11.314,6.229c6.86,3.476,11.905,6.821,15.127,10.042
		l7.373,7.373c-2.884,7.627-5.681,15.167-8.39,22.627c-2.038,8.473-1.275,16.355,2.288,23.644
		c-15.258-10.507-27.291-20.172-36.102-28.983c-5.931-5.931-11.353-14.913-16.271-26.949c-4.576-11.012-7.456-21.185-8.644-30.509
		c-0.846-6.948-0.338-18.81,1.525-35.593c2.034-18.639,4.66-29.575,7.881-32.797c0.675-0.675,3.984-1.267,9.915-1.78
		C879.222,1475.913,883.119,1475.742,887.016,1475.571z M1144.204,1399.613c5.233,23.835,8.889,38.718,10.974,44.651
		c6.757,18.516,15.623,29.875,26.585,34.083c0.897,0.344,5.186,0.709,12.869,1.089c7.681,0.385,13.651,1.389,17.904,3.021
		l9.734,3.737c0.468,8.141,0.979,16.166,1.539,24.083c1.585,8.57,5.487,15.459,11.707,20.669
		c-18.213-3.393-33.136-7.328-44.769-11.793c-7.83-3.006-16.437-9.005-25.826-18.001c-8.66-8.198-15.428-16.321-20.306-24.355
		c-3.599-6.003-7.959-17.046-13.083-33.137c-5.723-17.855-7.772-28.913-6.14-33.167c0.342-0.892,3.125-2.778,8.334-5.659
		C1137.223,1403.095,1140.714,1401.354,1144.204,1399.613z M1348.262,1225.613c14.475,19.646,23.869,31.755,28.187,36.327
		c13.704,14.167,26.424,20.938,38.149,20.323c0.959-0.05,5.026-1.462,12.199-4.24c7.174-2.773,13.035-4.284,17.585-4.522
		l10.412-0.546c3.738,7.247,7.47,14.37,11.201,21.375c4.933,7.184,11.301,11.891,19.102,14.121
		c-18.018,4.308-33.252,6.783-45.695,7.435c-8.376,0.439-18.679-1.541-30.915-5.941c-11.245-3.967-20.733-8.635-28.456-13.99
		c-5.729-4.02-14.204-12.335-25.43-24.95c-12.49-13.983-18.861-23.252-19.099-27.802c-0.05-0.954,1.724-3.809,5.312-8.559
		C1343.301,1231.634,1345.782,1228.623,1348.262,1225.613z M1463.907,983.658c21.214,12.06,34.721,19.301,40.525,21.722
		c18.281,7.368,32.656,8.38,43.117,3.049c0.856-0.436,3.997-3.38,9.42-8.835c5.426-5.451,10.166-9.215,14.225-11.283l9.29-4.734
		c6.363,5.1,12.669,10.089,18.927,14.971c7.429,4.557,15.16,6.267,23.194,5.13c-14.708,11.265-27.618,19.722-38.721,25.378
		c-7.473,3.808-17.691,6.189-30.658,7.147c-11.887,0.95-22.452,0.545-31.687-1.207c-6.869-1.342-17.993-5.491-33.38-12.45
		c-17.098-7.694-26.688-13.571-28.756-17.63c-0.434-0.851,0.026-4.181,1.371-9.98
		C1461.823,991.176,1462.865,987.417,1463.907,983.658z M1471.141,715.585c24.285,2.389,39.569,3.51,45.857,3.361
		c19.698-0.704,33.241-5.627,40.63-14.752c0.604-0.747,2.277-4.713,5.012-11.903c2.74-7.186,5.539-12.553,8.406-16.094l6.562-8.103
		c7.887,2.071,15.677,4.064,23.38,5.979c8.64,1.141,16.398-0.441,23.275-4.747c-8.855,16.273-17.209,29.25-25.051,38.934
		c-5.278,6.518-13.644,12.85-25.101,18.999c-10.473,5.702-20.29,9.63-29.438,11.786c-6.821,1.568-18.671,2.302-35.558,2.203
		c-18.749-0.074-29.9-1.543-33.441-4.41c-0.742-0.601-1.677-3.83-2.806-9.675C1472.296,723.301,1471.718,719.443,1471.141,715.585z
		 M1368.715,467.746c23.157-7.696,37.576-12.888,43.259-15.582c17.708-8.655,28.078-18.66,31.117-30.002
		c0.249-0.928,0.163-5.232-0.262-12.912c-0.42-7.679-0.046-13.721,1.133-18.122l2.699-10.072c8.047-1.316,15.975-2.664,23.791-4.048
		c8.357-2.472,14.801-7.073,19.332-13.804c-1.47,18.468-3.824,33.721-7.049,45.757c-2.171,8.102-7.238,17.289-15.203,27.566
		c-7.248,9.469-14.619,17.05-22.099,22.74c-5.594,4.207-16.121,9.697-31.587,16.476c-17.159,7.558-27.943,10.752-32.344,9.573
		c-0.922-0.247-3.09-2.817-6.499-7.697C1372.908,474.325,1370.811,471.035,1368.715,467.746z M1246.215,334.586
		c-4.497-3.901-6.826-6.325-6.976-7.268c-0.713-4.5,3.591-14.891,12.901-31.166c8.358-14.673,14.919-24.569,19.687-29.692
		c6.441-6.845,14.751-13.382,24.926-19.601c11.054-6.847,20.72-10.926,29.004-12.238c12.307-1.949,27.723-2.696,46.243-2.228
		c-7.167,3.803-12.417,9.731-15.749,17.784c-2.193,7.628-4.363,15.372-6.512,23.237l-10.298,1.631
		c-4.5,0.713-10.548,0.453-18.141-0.767c-7.594-1.226-11.865-1.761-12.814-1.611c-11.597,1.837-22.631,11.104-33.09,27.811
		c-3.273,5.37-9.944,19.168-20.018,41.394C1252.325,339.443,1249.273,337.014,1246.215,334.586z M1008.268,211.171
		c-5.695-1.734-8.808-3.001-9.329-3.802c-2.481-3.821-2.776-15.064-0.89-33.719c1.667-16.804,3.636-28.513,5.908-35.133
		c3.1-8.873,8.033-18.225,14.798-28.045c7.313-10.751,14.484-18.409,21.519-22.977c10.45-6.786,24.229-13.739,41.339-20.844
		c-5.001,6.389-7.386,13.94-7.154,22.652c1.099,7.861,2.267,15.817,3.502,23.877l-8.745,5.679
		c-3.821,2.481-9.451,4.704-16.885,6.678c-7.436,1.969-11.556,3.217-12.361,3.74c-9.847,6.395-16.158,19.349-18.918,38.865
		c-0.806,6.237-1.288,21.555-1.451,45.957C1015.826,213.123,1012.049,212.146,1008.268,211.171z M740.696,195.208
		c-5.908,0.732-9.268,0.841-10.069,0.321c-3.821-2.481-8.663-12.633-14.528-30.441c-5.312-16.03-8.275-27.526-8.892-34.498
		c-0.777-9.367-0.075-19.917,2.112-31.639c2.308-12.796,5.744-22.709,10.313-29.743c6.786-10.45,16.547-22.406,29.287-35.856
		c-1.97,7.871-1.077,15.739,2.678,23.603c4.201,6.734,8.504,13.528,12.911,20.388l-5.679,8.745
		c-2.481,3.821-6.721,8.142-12.709,12.968c-5.993,4.823-9.248,7.639-9.771,8.445c-6.395,9.847-6.891,24.248-1.474,43.2
		c1.801,6.026,7.591,20.216,17.367,42.574C748.394,193.917,744.547,194.56,740.696,195.208z M489.764,289.456
		c-5.099,3.072-8.124,4.538-9.068,4.388c-4.5-0.713-13.052-8.017-25.654-21.901c-11.372-12.483-18.756-21.781-22.155-27.899
		c-4.519-8.241-8.169-18.164-10.939-29.763c-3.096-12.628-3.989-23.082-2.677-31.366c1.949-12.307,6.003-27.199,12.171-44.668
		c1.402,7.992,5.417,14.816,12.047,20.473c6.577,4.443,13.271,8.899,20.087,13.374l-1.631,10.298
		c-0.713,4.5-2.828,10.171-6.335,17.016c-3.513,6.844-5.341,10.74-5.492,11.689c-1.837,11.597,3.567,24.955,16.224,40.065
		c4.096,4.772,15.157,15.38,33.182,31.83C496.271,285.146,493.018,287.298,489.764,289.456z M298.86,477.619
		c-3.409,4.88-5.576,7.45-6.499,7.697c-4.401,1.179-15.185-2.015-32.343-9.573c-15.467-6.778-25.993-12.269-31.587-16.476
		c-7.48-5.69-14.851-13.271-22.099-22.74c-7.965-10.277-13.032-19.464-15.203-27.566c-3.225-12.036-5.579-27.289-7.049-45.757
		c4.531,6.731,10.975,11.332,19.332,13.804c7.815,1.384,15.743,2.732,23.791,4.048l2.699,10.072
		c1.179,4.401,1.553,10.442,1.133,18.122c-0.425,7.681-0.511,11.984-0.262,12.912c3.039,11.341,13.409,21.347,31.117,30.002
		c5.683,2.694,20.102,7.886,43.259,15.582C303.051,471.035,300.955,474.325,298.86,477.619z M200.993,727.163
		c-1.13,5.845-2.064,9.074-2.806,9.675c-3.541,2.867-14.692,4.336-33.441,4.41c-16.886,0.099-28.736-0.636-35.558-2.203
		c-9.148-2.156-18.965-6.083-29.438-11.786c-11.457-6.149-19.822-12.481-25.101-18.999c-7.842-9.684-16.196-22.661-25.051-38.934
		c6.877,4.306,14.636,5.888,23.275,4.747c7.703-1.915,15.493-3.908,23.38-5.979l6.562,8.103c2.867,3.541,5.666,8.908,8.406,16.094
		c2.735,7.19,4.408,11.156,5.012,11.903c7.389,9.125,20.932,14.047,40.63,14.752c6.287,0.15,21.572-0.972,45.857-3.361
		C202.144,719.443,201.567,723.301,200.993,727.163z M213.086,994.938c1.345,5.799,1.805,9.129,1.371,9.98
		c-2.068,4.06-11.658,9.936-28.756,17.63c-15.386,6.958-26.511,11.107-33.38,12.45c-9.234,1.751-19.8,2.156-31.687,1.207
		c-12.967-0.958-23.185-3.339-30.658-7.147c-11.102-5.657-24.013-14.114-38.721-25.378c8.034,1.136,15.765-0.574,23.194-5.13
		c6.258-4.882,12.564-9.872,18.927-14.971l9.29,4.734c4.06,2.068,8.8,5.833,14.225,11.283c5.423,5.456,8.564,8.399,9.42,8.835
		c10.462,5.331,24.836,4.319,43.117-3.049c5.805-2.421,19.311-9.662,40.525-21.722C210.998,987.417,212.039,991.176,213.086,994.938
		z M333.048,1234.644c3.588,4.75,5.362,7.605,5.312,8.559c-0.238,4.55-6.609,13.819-19.099,27.802
		c-11.226,12.615-19.701,20.93-25.43,24.95c-7.723,5.356-17.211,10.023-28.456,13.99c-12.236,4.399-22.539,6.38-30.915,5.941
		c-12.443-0.652-27.677-3.127-45.695-7.435c7.801-2.229,14.169-6.936,19.102-14.121c3.731-7.005,7.463-14.129,11.201-21.375
		l10.413,0.546c4.55,0.239,10.411,1.75,17.585,4.522c7.173,2.778,11.24,4.189,12.199,4.24c11.725,0.615,24.445-6.156,38.149-20.323
		c4.318-4.572,13.712-16.681,28.187-36.327C328.081,1228.623,330.561,1231.634,333.048,1234.644z M540.135,1404.834
		c5.21,2.88,7.992,4.767,8.334,5.659c1.633,4.254-0.417,15.312-6.14,33.167c-5.125,16.09-9.485,27.134-13.083,33.137
		c-4.877,8.034-11.646,16.157-20.306,24.355c-9.388,8.996-17.995,14.995-25.826,18.001c-11.633,4.465-26.556,8.401-44.769,11.793
		c6.22-5.21,10.123-12.1,11.707-20.669c0.559-7.917,1.071-15.943,1.539-24.083l9.734-3.737c4.254-1.633,10.223-2.636,17.904-3.021
		c7.683-0.38,11.972-0.744,12.869-1.089c10.962-4.208,19.828-15.567,26.585-34.083c2.085-5.933,5.742-20.816,10.974-44.651
		C533.149,1401.354,536.639,1403.095,540.135,1404.834z M798.541,1476.08c5.931,0.512,9.24,1.104,9.915,1.78
		c3.222,3.222,5.847,14.158,7.881,32.797c1.863,16.784,2.372,28.646,1.525,35.593c-1.188,9.323-4.068,19.497-8.644,30.509
		c-4.918,12.037-10.34,21.018-16.271,26.949c-8.811,8.811-20.844,18.476-36.102,28.983c3.563-7.289,4.326-15.171,2.288-23.644
		c-2.709-7.46-5.506-15-8.39-22.627l7.373-7.373c3.222-3.222,8.267-6.567,15.127-10.042c6.864-3.472,10.634-5.55,11.314-6.229
		c8.302-8.302,11.782-22.286,10.424-41.949c-0.508-6.269-3.222-21.352-8.136-45.254
		C790.743,1475.742,794.64,1475.913,798.541,1476.08z M1063.586,1436.063c5.627-1.944,8.89-2.749,9.782-2.407
		c4.254,1.633,11.1,10.556,20.54,26.756c8.528,14.575,13.818,25.204,15.871,31.896c2.707,9,4.214,19.466,4.512,31.387
		c0.403,12.996-0.897,23.407-3.903,31.237c-4.465,11.633-11.527,25.356-21.192,41.161c0.29-8.109-2.219-15.619-7.527-22.531
		c-5.509-5.713-11.131-11.464-16.868-17.258l3.737-9.734c1.633-4.254,4.881-9.361,9.735-15.327
		c4.859-5.964,7.458-9.395,7.802-10.292c4.208-10.962,1.699-25.151-7.54-42.562c-3.014-5.52-11.628-18.196-25.839-38.033
		C1056.324,1438.926,1059.954,1437.497,1063.586,1436.063z M1289.439,1291.703c4.349-4.065,7.003-6.128,7.957-6.178
		c4.55-0.239,14.434,5.128,29.646,16.088c13.719,9.846,22.875,17.405,27.472,22.683c6.134,7.121,11.767,16.069,16.888,26.838
		c5.654,11.709,8.701,21.748,9.14,30.124c0.652,12.443-0.217,27.853-2.618,46.222c-3.033-7.526-8.379-13.366-16.04-17.521
		c-7.357-2.979-14.831-5.945-22.429-8.906l-0.546-10.413c-0.238-4.55,0.652-10.537,2.659-17.961
		c2.013-7.424,2.992-11.616,2.941-12.576c-0.615-11.725-8.677-23.668-24.199-35.816c-4.999-3.817-18.023-11.893-39.074-24.235
		C1283.97,1297.272,1286.705,1294.49,1289.439,1291.703z M1437.05,1067.96c2.32-5.482,3.906-8.447,4.756-8.88
		c4.06-2.068,15.272-1.186,33.627,2.639c16.538,3.415,27.976,6.596,34.323,9.548c8.5,4.011,17.286,9.894,26.344,17.649
		c9.928,8.397,16.794,16.329,20.602,23.803c5.657,11.102,11.131,25.533,16.409,43.291c-5.832-5.641-13.092-8.802-21.78-9.483
		c-7.932,0.271-15.967,0.601-24.112,0.987l-4.734-9.29c-2.068-4.06-3.691-9.891-4.876-17.49c-1.181-7.601-1.992-11.829-2.428-12.685
		c-5.33-10.462-17.554-18.092-36.675-22.877c-6.119-1.453-21.302-3.534-45.553-6.247
		C1434.319,1075.272,1435.686,1071.618,1437.05,1067.96z M1480.895,803.522c-0.11-5.952,0.132-9.305,0.734-10.047
		c2.867-3.541,13.469-7.295,31.793-11.266c16.497-3.607,28.241-5.353,35.239-5.238c9.396,0.207,19.815,2.008,31.245,5.408
		c12.485,3.633,21.984,8.087,28.502,13.365c9.684,7.842,20.553,18.798,32.598,32.874c-7.622-2.782-15.54-2.717-23.754,0.196
		c-7.136,3.474-14.342,7.044-21.626,10.709l-8.103-6.562c-3.541-2.867-7.395-7.535-11.569-13.995
		c-4.17-6.464-6.631-9.996-7.377-10.601c-9.125-7.389-23.395-9.388-42.809-5.982c-6.181,1.161-20.898,5.436-44.156,12.821
		C1481.374,811.313,1481.137,807.419,1480.895,803.522z M1413.393,544.113c-2.522-5.393-3.664-8.554-3.416-9.477
		c1.179-4.401,9.337-12.143,24.462-23.224c13.604-10.005,23.622-16.377,30.062-19.118c8.668-3.633,18.919-6.226,30.743-7.768
		c12.883-1.759,23.373-1.554,31.474,0.617c12.036,3.225,26.422,8.813,43.151,16.773c-8.094,0.559-15.301,3.839-21.62,9.84
		c-5.106,6.076-10.237,12.268-15.401,18.579l-10.072-2.699c-4.401-1.179-9.82-3.876-16.261-8.079
		c-6.439-4.209-10.123-6.435-11.051-6.683c-11.341-3.039-25.191,0.939-41.541,11.947c-5.174,3.575-16.88,13.466-35.124,29.673
		C1416.999,551.035,1415.199,547.574,1413.393,544.113z M1143.865,143.22c13.289-7.39,28.612-12.459,45.97-15.208
		c3.08-0.488,7.43-0.995,13.046-1.52c5.622-0.526,9.753-0.874,12.392-1.053c-9.751,11.982-13.052,27.913-9.903,47.8l12.621,47.509
		c0.927,2.765-0.394,7.462-3.956,14.096c-2.96,5.804-5.911,10.156-8.854,13.051c-7.079-26.306-12.264-42.958-15.557-49.956
		c-5.846-12.418-14.304-20.606-25.367-24.558c-7.592-2.711-18.326-3.927-32.199-3.644c-9.072-10.498-17.158-17.662-24.253-21.49
		c-10.34-5.577-22.084-6.384-35.224-2.419c-7.404,2.236-23.248,9.524-47.534,21.866c0.182-4.124,1.442-9.229,3.775-15.313
		c2.546-7.086,5.153-11.21,7.828-12.372l43.751-22.41c16.886-10.966,26.517-24.08,28.896-39.344c1.633,2.081,4.139,5.384,7.51,9.914
		c3.367,4.525,5.902,8.098,7.6,10.713C1133.979,113.62,1140.465,128.4,1143.865,143.22z M1397.727,327.661
		c15.145-1.346,31.205,0.255,48.181,4.804c3.012,0.807,7.192,2.113,12.537,3.918c5.35,1.806,9.265,3.169,11.749,4.079
		c-13.782,6.98-23.277,20.191-28.489,39.64l-7.794,48.535c-0.278,2.903-3.395,6.657-9.347,11.268
		c-5.065,4.098-9.531,6.874-13.397,8.322c4.233-26.911,6.269-44.233,6.107-51.965c-0.29-13.722-4.686-24.642-13.185-32.753
		c-5.833-5.565-15.145-11.041-27.933-16.425c-4.018-13.281-8.491-23.114-13.415-29.497c-7.178-9.3-17.579-14.814-31.195-16.537
		c-7.673-0.969-25.112-0.755-52.318,0.642c1.844-3.693,5.071-7.845,9.677-12.453c5.208-5.438,9.267-8.145,12.183-8.118l49.084-2.678
		c19.887-3.15,34.018-11.212,42.4-24.189c0.645,2.565,1.592,6.602,2.828,12.111c1.236,5.504,2.098,9.798,2.586,12.878
		C1400.735,296.6,1400.649,312.739,1397.727,327.661z M1554.623,599.412c14.383,4.931,28.404,12.926,42.062,23.986
		c2.423,1.962,5.711,4.856,9.859,8.678c4.153,3.826,7.175,6.663,9.074,8.505c-15.429,0.771-29.477,8.978-42.148,24.625
		l-26.861,41.169c-1.435,2.539-5.809,4.701-13.122,6.492c-6.294,1.684-11.503,2.403-15.623,2.153
		c14.813-22.863,23.718-37.859,26.715-44.988c5.317-12.654,5.742-24.418,1.276-35.284c-3.066-7.456-9.345-16.246-18.837-26.366
		c1.731-13.767,1.644-24.569-0.258-32.403c-2.775-11.416-10.033-20.683-21.772-27.795c-6.615-4.006-22.634-10.904-48.056-20.693
		c3.187-2.624,7.823-5.104,13.905-7.441c6.969-2.849,11.779-3.672,14.432-2.461l45.929,17.518
		c19.449,5.211,35.638,3.593,48.573-4.852c-0.454,2.606-1.231,6.679-2.342,12.214c-1.11,5.53-2.069,9.804-2.876,12.816
		C1570.004,572.26,1563.361,586.969,1554.623,599.412z M1587.423,911.484c11.134,10.355,20.691,23.361,28.67,39.02
		c1.416,2.778,3.242,6.759,5.477,11.938c2.238,5.184,3.845,9.006,4.831,11.46c-14.409-5.571-30.58-3.788-48.521,5.353
		l-41.284,26.684c-2.344,1.736-7.219,1.932-14.628,0.593c-6.435-1.021-11.486-2.483-15.148-4.387
		c22.831-14.861,37.066-24.939,42.704-30.233c10.004-9.397,15.177-19.971,15.517-31.715c0.232-8.058-1.929-18.643-6.484-31.749
		c7.181-11.872,11.495-21.776,12.944-29.707c2.109-11.558-0.753-22.976-8.584-34.248c-4.414-6.35-16.242-19.167-35.485-38.451
		c3.978-1.101,9.223-1.481,15.729-1.142c7.526,0.232,12.254,1.436,14.185,3.622l34.833,34.685
		c15.647,12.671,31.095,17.778,46.347,15.324c-1.475,2.196-3.841,5.6-7.108,10.206c-3.263,4.601-5.878,8.115-7.84,10.538
		C1612.518,892.935,1600.467,903.67,1587.423,911.484z M1490.456,1209.917c5.96,13.988,9.4,29.757,10.32,47.308
		c0.163,3.114,0.213,7.493,0.148,13.134c-0.064,5.646-0.151,9.791-0.248,12.434c-10.897-10.95-26.396-15.899-46.503-14.845
		l-48.568,7.586c-2.847,0.633-7.38-1.172-13.605-5.408c-5.463-3.55-9.483-6.94-12.054-10.169c26.902-4.29,44.005-7.707,51.309-10.25
		c12.961-4.516,21.988-12.072,27.076-22.661c3.49-7.267,5.821-17.816,6.99-31.641c11.389-7.925,19.359-15.218,23.907-21.874
		c6.627-9.701,8.657-21.296,6.088-34.779c-1.45-7.597-7.042-24.117-16.778-49.559c4.082,0.612,9.028,2.399,14.834,5.354
		c6.781,3.273,10.61,6.296,11.486,9.078l17.714,45.854c9.141,17.94,21.176,28.889,36.108,32.85
		c-2.24,1.406-5.787,3.554-10.644,6.432c-4.852,2.876-8.67,5.023-11.448,6.438
		C1520.926,1203.179,1505.55,1208.084,1490.456,1209.917z M1280.489,1443.109c-0.245,15.203-3.516,31.008-9.814,47.415
		c-1.117,2.911-2.854,6.932-5.207,12.058c-2.355,5.132-4.12,8.883-5.284,11.258c-5.501-14.436-17.647-25.26-36.445-32.476
		l-47.454-12.824c-2.859-0.58-6.266-4.072-10.229-10.474c-3.547-5.465-5.84-10.197-6.876-14.193
		c26.321,7.023,43.335,10.858,51.042,11.505c13.677,1.146,24.997-2.085,33.952-9.689c6.144-5.22,12.564-13.908,19.255-26.063
		c13.628-2.608,23.875-6.029,30.737-10.259c10-6.167,16.571-15.934,19.707-29.296c1.766-7.53,3.376-24.896,4.83-52.099
		c3.48,2.22,7.272,5.863,11.374,10.925c4.864,5.748,7.132,10.067,6.8,12.965l-2.468,49.095c1.054,20.107,7.595,35.004,19.624,44.697
		c-2.619,0.374-6.732,0.893-12.34,1.547c-5.603,0.654-9.964,1.062-13.077,1.225
		C1311.066,1449.347,1295.023,1447.574,1280.489,1443.109z M993.827,1570.739c-6.407,13.789-15.824,26.897-28.251,39.324
		c-2.205,2.205-5.426,5.172-9.661,8.898c-4.239,3.73-7.377,6.439-9.407,8.136c0.846-15.425-5.847-30.254-20.085-44.492
		l-38.136-31.017c-2.376-1.692-4.068-6.269-5.085-13.729c-1.017-6.435-1.188-11.691-0.508-15.763
		c21.189,17.121,35.172,27.545,41.949,31.271c12.029,6.61,23.684,8.263,34.958,4.958c7.736-2.269,17.134-7.595,28.191-15.978
		c13.51,3.161,24.263,4.203,32.253,3.13c11.643-1.566,21.619-7.816,29.919-18.748c4.676-6.161,13.21-21.37,25.603-45.63
		c2.277,3.443,4.258,8.314,5.947,14.607c2.105,7.229,2.421,12.098,0.939,14.61l-22.223,43.847
		c-7.216,18.797-7.299,35.067-0.252,48.814c-2.544-0.724-6.513-1.922-11.903-3.606c-5.384-1.682-9.534-3.082-12.445-4.2
		C1019.223,1588.874,1005.288,1580.73,993.827,1570.739z M680.036,1570.739c-11.462,9.991-25.396,18.135-41.803,24.434
		c-2.911,1.117-7.061,2.518-12.445,4.2c-5.389,1.684-9.358,2.882-11.903,3.606c7.047-13.747,6.964-30.017-0.252-48.814
		l-22.223-43.847c-1.482-2.512-1.167-7.381,0.939-14.61c1.688-6.293,3.67-11.163,5.947-14.607
		c12.393,24.26,20.928,39.469,25.603,45.63c8.3,10.931,18.276,17.182,29.919,18.748c7.99,1.073,18.742,0.031,32.253-3.13
		c11.057,8.382,20.455,13.708,28.191,15.978c11.274,3.305,22.929,1.653,34.958-4.958c6.777-3.726,20.76-14.15,41.949-31.271
		c0.679,4.072,0.508,9.327-0.508,15.763c-1.017,7.46-2.709,12.036-5.085,13.729l-38.136,31.017
		c-14.237,14.237-20.931,29.067-20.085,44.492c-2.03-1.696-5.168-4.405-9.407-8.136c-4.235-3.726-7.456-6.694-9.661-8.898
		C695.86,1597.636,686.443,1584.528,680.036,1570.739z M393.374,1443.109c-14.535,4.465-30.577,6.238-48.127,5.318
		c-3.114-0.163-7.475-0.572-13.077-1.225c-5.608-0.654-9.721-1.173-12.34-1.547c12.029-9.693,18.571-24.59,19.624-44.697
		l-2.468-49.095c-0.332-2.898,1.937-7.218,6.8-12.965c4.102-5.062,7.893-8.705,11.374-10.925c1.455,27.203,3.065,44.569,4.83,52.099
		c3.136,13.362,9.707,23.129,19.707,29.296c6.863,4.23,17.11,7.651,30.737,10.259c6.691,12.155,13.111,20.843,19.255,26.063
		c8.955,7.605,20.275,10.836,33.952,9.689c7.707-0.647,24.721-4.483,51.042-11.505c-1.036,3.996-3.329,8.728-6.876,14.193
		c-3.963,6.402-7.371,9.894-10.229,10.474l-47.454,12.824c-18.797,7.216-30.944,18.04-36.445,32.476
		c-1.165-2.375-2.93-6.127-5.284-11.258c-2.353-5.126-4.089-9.148-5.207-12.058C396.89,1474.117,393.618,1458.312,393.374,1443.109z
		 M183.407,1209.917c-15.094-1.832-30.47-6.738-46.13-14.717c-2.778-1.416-6.596-3.563-11.448-6.438
		c-4.857-2.878-8.404-5.026-10.644-6.432c14.932-3.962,26.967-14.91,36.107-32.85l17.714-45.854
		c0.875-2.782,4.705-5.806,11.486-9.078c5.806-2.956,10.752-4.742,14.834-5.354c-9.736,25.443-15.328,41.963-16.778,49.559
		c-2.57,13.483-0.54,25.078,6.088,34.779c4.549,6.656,12.518,13.949,23.907,21.874c1.169,13.826,3.5,24.374,6.99,31.641
		c5.088,10.59,14.114,18.145,27.076,22.661c7.304,2.543,24.407,5.96,51.309,10.25c-2.571,3.229-6.591,6.619-12.054,10.169
		c-6.225,4.236-10.758,6.041-13.605,5.408l-48.568-7.586c-20.107-1.054-35.606,3.895-46.503,14.845
		c-0.098-2.644-0.184-6.789-0.248-12.434c-0.064-5.64-0.015-10.02,0.148-13.134C174.006,1239.674,177.446,1223.905,183.407,1209.917
		z M86.44,911.484c-13.044-7.813-25.096-18.549-36.156-32.207c-1.962-2.423-4.577-5.937-7.84-10.538
		c-3.267-4.605-5.633-8.01-7.108-10.206c15.252,2.454,30.7-2.653,46.347-15.324l34.833-34.685c1.931-2.186,6.659-3.39,14.185-3.622
		c6.506-0.339,11.751,0.041,15.73,1.142c-19.242,19.283-31.071,32.1-35.485,38.451c-7.831,11.272-10.693,22.69-8.585,34.248
		c1.448,7.93,5.763,17.834,12.944,29.707c-4.556,13.106-6.716,23.69-6.484,31.749c0.34,11.743,5.514,22.318,15.518,31.715
		c5.638,5.294,19.873,15.371,42.704,30.233c-3.663,1.904-8.714,3.366-15.148,4.387c-7.409,1.338-12.285,1.143-14.628-0.593
		l-41.284-26.684c-17.94-9.141-34.112-10.924-48.521-5.353c0.986-2.455,2.593-6.277,4.831-11.46
		c2.235-5.179,4.062-9.16,5.477-11.938C65.749,934.845,75.306,921.838,86.44,911.484z M119.24,599.412
		c-8.738-12.443-15.382-27.152-19.93-44.128c-0.807-3.012-1.766-7.285-2.876-12.816c-1.111-5.536-1.888-9.608-2.342-12.214
		c12.935,8.445,29.125,10.063,48.573,4.852l45.929-17.518c2.653-1.211,7.463-0.389,14.432,2.461
		c6.082,2.337,10.719,4.817,13.905,7.441c-25.422,9.79-41.441,16.688-48.056,20.693c-11.739,7.112-18.998,16.379-21.772,27.795
		c-1.902,7.834-1.989,18.636-0.258,32.403c-9.492,10.12-15.772,18.91-18.837,26.366c-4.465,10.867-4.04,22.631,1.276,35.284
		c2.997,7.129,11.902,22.125,26.715,44.988c-4.12,0.25-9.329-0.469-15.623-2.153c-7.313-1.791-11.687-3.953-13.122-6.492
		l-26.861-41.169c-12.671-15.648-26.719-23.855-42.148-24.625c1.899-1.841,4.922-4.679,9.074-8.505
		c4.148-3.822,7.436-6.716,9.859-8.678C90.836,612.338,104.857,604.343,119.24,599.412z M276.135,327.661
		c-2.922-14.922-3.008-31.061-0.259-48.42c0.488-3.08,1.35-7.374,2.586-12.878c1.237-5.509,2.183-9.546,2.828-12.111
		c8.382,12.977,22.514,21.039,42.4,24.189l49.084,2.678c2.917-0.027,6.975,2.68,12.183,8.118c4.605,4.609,7.833,8.76,9.676,12.453
		c-27.206-1.397-44.645-1.611-52.318-0.642c-13.617,1.723-24.017,7.236-31.195,16.537c-4.924,6.383-9.397,16.216-13.415,29.497
		c-12.788,5.384-22.1,10.861-27.933,16.425c-8.499,8.111-12.896,19.031-13.185,32.753c-0.162,7.732,1.874,25.054,6.107,51.965
		c-3.866-1.448-8.332-4.223-13.397-8.322c-5.952-4.611-9.069-8.365-9.347-11.268l-7.794-48.535
		c-5.211-19.449-14.707-32.66-28.488-39.64c2.484-0.91,6.399-2.273,11.749-4.079c5.344-1.804,9.525-3.111,12.537-3.918
		C244.93,327.917,260.99,326.315,276.135,327.661z M529.997,143.22c3.4-14.82,9.886-29.599,19.458-44.339
		c1.698-2.615,4.232-6.187,7.6-10.713c3.37-4.53,5.877-7.832,7.51-9.914c2.379,15.264,12.01,28.377,28.896,39.344l43.751,22.41
		c2.675,1.161,5.282,5.286,7.828,12.372c2.333,6.083,3.593,11.189,3.775,15.313c-24.286-12.342-40.131-19.63-47.534-21.866
		c-13.14-3.965-24.884-3.158-35.225,2.419c-7.095,3.828-15.181,10.992-24.253,21.49c-13.872-0.283-24.606,0.933-32.199,3.644
		c-11.063,3.953-19.521,12.14-25.367,24.558c-3.293,6.998-8.478,23.65-15.557,49.956c-2.943-2.895-5.894-7.247-8.854-13.051
		c-3.562-6.633-4.883-11.33-3.956-14.096l12.621-47.509c3.15-19.887-0.151-35.818-9.903-47.8c2.639,0.179,6.771,0.526,12.392,1.053
		c5.616,0.525,9.967,1.033,13.046,1.52C501.386,130.76,516.709,135.83,529.997,143.22z M836.931,77.979
		c9.134-12.156,21.07-23.019,35.81-32.591c2.615-1.698,6.383-3.931,11.3-6.695c4.922-2.767,8.555-4.765,10.893-6.002
		c-4.035,14.912-0.571,30.809,10.396,47.695l30.854,38.268c1.972,2.149,2.676,6.977,2.119,14.486
		c-0.343,6.506-1.269,11.682-2.78,15.524c-17.166-21.153-28.677-34.256-34.531-39.31c-10.391-8.967-21.448-13.006-33.163-12.117
		c-8.038,0.611-18.339,3.867-30.897,9.767c-12.558-5.901-22.859-9.156-30.897-9.767c-11.715-0.889-22.772,3.151-33.163,12.117
		c-5.854,5.054-17.365,18.157-34.531,39.31c-1.511-3.842-2.437-9.018-2.78-15.524c-0.556-7.509,0.147-12.337,2.119-14.486
		l30.853-38.268c10.966-16.886,14.43-32.783,10.396-47.695c2.338,1.237,5.971,3.235,10.893,6.002
		c4.917,2.764,8.685,4.997,11.3,6.695C815.861,54.959,827.797,65.823,836.931,77.979z M1148.869,403.259
		c-3.714,1.003-7.554,1.818-11.519,2.446c-1.086-2.257-1.76-4.215-2.022-5.868c-1.05-6.631-0.807-16.982,0.724-31.057
		c1.536-14.076,1.914-24.329,1.135-30.758c1.15-0.427,6.984-3.415,17.51-8.962c0.702,1.345,1.544,5.153,2.538,11.429
		c0.993,6.27,3.939,11.082,8.839,14.435c12.074-1.912,21.37-10.665,27.876-26.257c3.734-8.6,7.013-21.621,9.832-39.052
		c5.867-4.331,14.719-12.041,26.55-23.135c-0.721,10.295-1.819,20.025-3.296,29.191c8.261-4.237,17.176-8.288,26.744-12.155
		c-6.895,14.681-11.492,25.482-13.798,32.4c-15.706,8.068-27.077,15.209-34.103,21.419c-12.818,11.006-18.27,22.551-16.358,34.625
		c4.703,3.623,10.19,4.939,16.46,3.945c6.276-0.994,10.158-1.37,11.654-1.118c-2.022,11.725-3.062,18.197-3.112,19.422
		c-6.355,1.245-15.989,4.773-28.902,10.584c-12.914,5.805-22.683,9.235-29.313,10.285c-1.654,0.262-3.724,0.226-6.206-0.109
		C1149.474,411.005,1149.063,407.101,1148.869,403.259z M1296.531,567.254c-3.801-0.595-7.64-1.411-11.518-2.451
		c-0.074-2.503,0.107-4.566,0.54-6.183c1.738-6.485,6.17-15.842,13.293-28.078c7.129-12.235,11.644-21.447,13.547-27.637
		c1.224,0.078,7.77-0.279,19.641-1.065c0.094,1.514-0.685,5.336-2.33,11.473c-1.643,6.132-0.909,11.726,2.203,16.782
		c11.808,3.164,23.86-1.051,36.145-12.649c6.909-6.338,15.201-16.9,24.866-31.677c7.121-1.57,18.344-5.013,33.664-10.336
		c-4.846,9.112-9.807,17.554-14.884,25.327c9.27-0.51,19.062-0.586,29.376-0.227c-12.27,10.607-20.863,18.605-25.783,23.986
		c-17.63,0.982-30.923,2.881-39.866,5.696c-16.186,4.841-25.863,13.17-29.027,24.979c2.823,5.223,7.3,8.656,13.432,10.299
		c6.137,1.645,9.837,2.88,11.101,3.719c-6.616,9.888-10.198,15.379-10.743,16.477c-6.312-1.447-16.548-2.143-30.708-2.086
		c-14.158,0.051-24.478-0.789-30.963-2.527c-1.617-0.433-3.494-1.308-5.625-2.624
		C1293.933,574.577,1295.145,570.843,1296.531,567.254z M1364.724,777.131c-3.231-2.089-6.406-4.397-9.526-6.924
		c0.951-2.317,1.955-4.128,3.008-5.429c4.225-5.217,12.08-11.963,23.564-20.244c11.489-8.277,19.361-14.857,23.617-19.738
		c1.086,0.569,7.212,2.905,18.376,7.016c-0.53,1.422-2.796,4.596-6.795,9.534c-3.995,4.934-5.599,10.343-4.813,16.228
		c9.5,7.693,22.225,8.744,38.165,3.147c8.89-2.979,20.76-9.256,35.6-18.824c7.144,1.462,18.797,2.881,34.958,4.251
		c-8.133,6.353-16.099,12.047-23.899,17.083c8.676,3.304,17.652,7.218,26.928,11.741c-15.523,4.699-26.627,8.51-33.31,11.426
		c-16.505-6.274-29.421-9.945-38.736-11.011c-16.756-2.161-28.984,1.513-36.677,11.013c0.454,5.92,3.148,10.877,8.082,14.872
		c4.938,3.999,7.815,6.632,8.629,7.913c-10.066,6.342-15.572,9.901-16.516,10.683c-5.178-3.889-14.246-8.688-27.205-14.396
		c-12.955-5.712-22.041-10.677-27.258-14.902c-1.301-1.054-2.66-2.616-4.071-4.685
		C1359.372,782.764,1361.998,779.846,1364.724,777.131z M1341.657,996.599c-2.102-3.223-4.064-6.622-5.886-10.199
		c1.811-1.73,3.465-2.976,4.956-3.736c5.982-3.048,15.901-6.015,29.76-8.909c13.862-2.889,23.73-5.698,29.603-8.425
		c0.761,0.961,5.406,5.587,13.934,13.884c-1.062,1.083-4.424,3.061-10.085,5.946c-5.656,2.882-9.322,7.171-10.997,12.867
		c5.55,10.892,16.747,17.028,33.586,18.398c9.333,0.894,22.73-0.012,40.179-2.717c5.932,4.241,16,10.278,30.207,18.102
		c-10.014,2.496-19.607,4.458-28.781,5.886c6.582,6.547,13.19,13.774,19.825,21.679c-16.093-2.021-27.786-3.055-35.078-3.11
		c-12.526-12.445-22.832-21.052-30.908-25.815c-14.428-8.79-27.093-10.407-37.985-4.857c-1.993,5.593-1.548,11.217,1.334,16.874
		c2.885,5.661,4.442,9.237,4.664,10.738c-11.776,1.7-18.253,2.711-19.434,3.042c-3.148-5.659-9.481-13.732-18.997-24.217
		c-9.511-10.488-15.792-18.719-18.84-24.7c-0.76-1.492-1.365-3.472-1.814-5.936C1334.477,999.569,1338.063,997.971,1341.657,996.599
		z M1231.318,1187.712c-0.609-3.799-1.019-7.703-1.229-11.712c2.358-0.844,4.376-1.309,6.047-1.397
		c6.704-0.351,16.973,0.973,30.811,3.966c13.839,2.999,23.996,4.447,30.471,4.344c0.304,1.188,2.667,7.303,7.082,18.351
		c-1.411,0.558-5.286,0.997-11.632,1.33c-6.34,0.332-11.433,2.759-15.28,7.281c0.64,12.208,8.373,22.367,23.199,30.468
		c8.163,4.613,20.77,9.234,37.81,13.86c3.694,6.287,10.436,15.897,20.233,28.823c-10.163-1.793-19.725-3.903-28.687-6.329
		c3.35,8.658,6.448,17.948,9.293,27.868c-13.879-8.392-24.141-14.093-30.78-17.109c-6.382-16.464-12.296-28.519-17.737-36.155
		c-9.606-13.898-20.518-20.527-32.726-19.887c-4.095,4.299-5.977,9.618-5.644,15.958c0.333,6.345,0.301,10.245-0.107,11.707
		c-11.449-3.237-17.777-4.947-18.991-5.125c-0.574-6.451-3.076-16.401-7.505-29.85c-4.423-13.45-6.813-23.524-7.165-30.228
		c-0.088-1.672,0.165-3.727,0.757-6.16C1223.551,1187.504,1227.477,1187.503,1231.318,1187.712z M1052.786,1317.423
		c0.989-3.718,2.202-7.451,3.641-11.199c2.497,0.188,4.53,0.583,6.093,1.183c6.267,2.406,15.11,7.792,26.534,16.155
		c11.422,8.368,20.112,13.822,26.07,16.362c-0.205,1.209-0.534,7.756-0.994,19.645c-1.516-0.064-5.235-1.239-11.167-3.516
		c-5.927-2.275-11.567-2.129-16.921,0.437c-4.381,11.413-1.448,23.839,8.801,37.27c5.581,7.534,15.218,16.884,28.904,28.041
		c0.817,7.246,3.068,18.767,6.76,34.56c-8.555-5.772-16.433-11.588-23.632-17.45c-0.461,9.273-1.41,19.019-2.845,29.238
		c-9.266-13.312-16.322-22.693-21.16-28.149c0.867-17.636,0.367-31.054-1.498-40.243c-3.122-16.604-10.395-27.098-21.808-31.479
		c-5.49,2.261-9.372,6.356-11.647,12.282c-2.277,5.932-3.892,9.482-4.859,10.651c-9.143-7.614-14.228-11.75-15.264-12.406
		c2.099-6.127,3.861-16.234,5.285-30.322c1.429-14.086,3.344-24.261,5.749-30.529c0.6-1.563,1.667-3.338,3.198-5.32
		C1045.776,1314.073,1049.362,1315.669,1052.786,1317.423z M836.931,1363.304c2.416-2.995,5.043-5.911,7.881-8.75
		c2.205,1.188,3.901,2.375,5.085,3.559c4.747,4.747,10.634,13.264,17.67,25.551c7.031,12.291,12.752,20.808,17.161,25.551
		c-0.679,1.021-3.643,6.868-8.898,17.542c-1.359-0.675-4.278-3.261-8.771-7.754c-4.489-4.489-9.701-6.65-15.636-6.483
		c-8.644,8.644-11.02,21.189-7.119,37.627c2.034,9.153,7.035,21.614,15,37.373c-2.201,6.952-4.831,18.393-7.881,34.322
		c-5.468-8.752-10.299-17.27-14.492-25.553c-4.193,8.283-9.023,16.801-14.492,25.553c-3.051-15.93-5.681-27.37-7.881-34.322
		c7.965-15.759,12.966-28.22,15-37.373c3.901-16.438,1.525-28.983-7.119-37.627c-5.935-0.167-11.147,1.994-15.636,6.483
		c-4.493,4.493-7.413,7.079-8.771,7.754c-5.256-10.674-8.219-16.521-8.898-17.542c4.409-4.743,10.13-13.26,17.161-25.551
		c7.035-12.287,12.922-20.804,17.67-25.551c1.184-1.184,2.88-2.372,5.085-3.559C831.889,1357.393,834.516,1360.309,836.931,1363.304
		z M621.076,1317.423c3.425-1.753,7.011-3.349,10.759-4.788c1.531,1.982,2.597,3.757,3.197,5.32
		c2.406,6.268,4.32,16.443,5.749,30.529c1.424,14.088,3.186,24.195,5.285,30.322c-1.036,0.656-6.121,4.793-15.264,12.406
		c-0.966-1.17-2.582-4.72-4.859-10.651c-2.275-5.927-6.157-10.021-11.647-12.282c-11.413,4.381-18.685,14.875-21.808,31.479
		c-1.865,9.188-2.364,22.607-1.498,40.243c-4.838,5.456-11.894,14.838-21.16,28.149c-1.435-10.22-2.384-19.966-2.845-29.238
		c-7.2,5.862-15.077,11.678-23.632,17.45c3.692-15.793,5.943-27.315,6.76-34.56c13.686-11.157,23.323-20.507,28.904-28.041
		c10.25-13.43,13.182-25.857,8.801-37.27c-5.354-2.566-10.994-2.712-16.921-0.437c-5.932,2.277-9.651,3.452-11.167,3.516
		c-0.46-11.889-0.789-18.436-0.994-19.645c5.957-2.54,14.647-7.994,26.07-16.362c11.425-8.363,20.267-13.749,26.534-16.155
		c1.563-0.6,3.596-0.995,6.093-1.183C618.874,1309.971,620.087,1313.704,621.076,1317.423z M442.544,1187.712
		c3.842-0.209,7.767-0.208,11.776,0.002c0.593,2.433,0.845,4.489,0.757,6.16c-0.351,6.704-2.741,16.778-7.165,30.228
		c-4.429,13.449-6.931,23.399-7.505,29.85c-1.213,0.178-7.542,1.889-18.991,5.125c-0.407-1.461-0.439-5.362-0.107-11.707
		c0.332-6.34-1.549-11.659-5.644-15.958c-12.208-0.64-23.12,5.989-32.726,19.887c-5.441,7.636-11.355,19.691-17.737,36.155
		c-6.639,3.016-16.901,8.717-30.78,17.109c2.845-9.92,5.943-19.209,9.293-27.868c-8.961,2.427-18.523,4.536-28.687,6.329
		c9.797-12.926,16.539-22.536,20.233-28.823c17.041-4.626,29.648-9.247,37.811-13.86c14.826-8.1,22.559-18.26,23.199-30.468
		c-3.847-4.522-8.941-6.949-15.28-7.281c-6.345-0.333-10.221-0.772-11.632-1.33c4.416-11.048,6.778-17.163,7.082-18.351
		c6.475,0.103,16.632-1.345,30.471-4.344c13.838-2.993,24.107-4.317,30.811-3.966c1.672,0.088,3.69,0.553,6.047,1.397
		C443.563,1180.009,443.153,1183.913,442.544,1187.712z M332.206,996.599c3.594,1.372,7.18,2.969,10.757,4.792
		c-0.448,2.464-1.054,4.444-1.814,5.936c-3.048,5.982-9.329,14.213-18.84,24.7c-9.516,10.485-15.849,18.557-18.997,24.217
		c-1.181-0.331-7.658-1.342-19.434-3.042c0.222-1.501,1.78-5.077,4.664-10.738c2.882-5.656,3.327-11.281,1.334-16.874
		c-10.892-5.55-23.557-3.932-37.985,4.857c-8.076,4.763-18.382,13.37-30.909,25.815c-7.292,0.055-18.985,1.09-35.078,3.11
		c6.634-7.905,13.242-15.131,19.825-21.679c-9.174-1.428-18.767-3.39-28.781-5.886c14.207-7.824,24.275-13.86,30.207-18.102
		c17.449,2.705,30.846,3.611,40.179,2.717c16.839-1.37,28.036-7.505,33.586-18.398c-1.675-5.696-5.341-9.985-10.997-12.867
		c-5.661-2.885-9.023-4.862-10.085-5.946c8.528-8.297,13.173-12.922,13.934-13.884c5.874,2.728,15.741,5.536,29.603,8.425
		c13.859,2.894,23.779,5.861,29.761,8.909c1.492,0.76,3.145,2.006,4.956,3.736C336.269,989.977,334.307,993.377,332.206,996.599z
		 M309.139,777.131c2.726,2.715,5.352,5.633,7.878,8.753c-1.412,2.068-2.77,3.631-4.071,4.685
		c-5.217,4.225-14.303,9.19-27.258,14.902c-12.958,5.708-22.027,10.507-27.205,14.396c-0.944-0.782-6.45-4.341-16.516-10.683
		c0.814-1.281,3.691-3.914,8.629-7.913c4.934-3.995,7.627-8.953,8.082-14.872c-7.693-9.5-19.921-13.174-36.677-11.013
		c-9.315,1.066-22.231,4.737-38.736,11.011c-6.684-2.915-17.787-6.727-33.31-11.426c9.276-4.523,18.252-8.437,26.928-11.741
		c-7.8-5.036-15.766-10.73-23.899-17.083c16.161-1.369,27.814-2.789,34.958-4.251c14.84,9.568,26.71,15.845,35.6,18.824
		c15.94,5.598,28.665,4.547,38.165-3.147c0.786-5.885-0.818-11.294-4.813-16.228c-3.999-4.938-6.265-8.112-6.795-9.534
		c11.165-4.111,17.29-6.447,18.376-7.016c4.256,4.881,12.129,11.46,23.617,19.738c11.484,8.281,19.339,15.026,23.564,20.244
		c1.054,1.301,2.058,3.112,3.008,5.429C315.544,772.734,312.369,775.041,309.139,777.131z M377.332,567.254
		c1.386,3.589,2.598,7.323,3.637,11.2c-2.131,1.315-4.008,2.191-5.625,2.624c-6.485,1.738-16.804,2.578-30.962,2.527
		c-14.16-0.056-24.396,0.639-30.708,2.086c-0.544-1.099-4.127-6.589-10.743-16.477c1.264-0.839,4.964-2.074,11.101-3.719
		c6.132-1.643,10.609-5.076,13.432-10.299c-3.164-11.808-12.841-20.138-29.027-24.979c-8.943-2.815-22.236-4.714-39.866-5.696
		c-4.92-5.382-13.513-13.38-25.783-23.986c10.314-0.359,20.106-0.284,29.376,0.227c-5.077-7.773-10.038-16.215-14.884-25.327
		c15.321,5.323,26.544,8.766,33.664,10.336c9.665,14.777,17.957,25.339,24.866,31.677c12.285,11.597,24.337,15.813,36.145,12.649
		c3.112-5.056,3.846-10.65,2.203-16.782c-1.645-6.137-2.424-9.959-2.33-11.473c11.872,0.786,18.418,1.143,19.641,1.065
		c1.903,6.19,6.419,15.403,13.547,27.637c7.123,12.236,11.555,21.593,13.293,28.078c0.433,1.617,0.614,3.68,0.54,6.183
		C384.972,565.843,381.133,566.659,377.332,567.254z M524.994,403.259c-0.194,3.842-0.605,7.746-1.233,11.711
		c-2.482,0.335-4.552,0.371-6.206,0.109c-6.631-1.05-16.4-4.48-29.313-10.285c-12.913-5.811-22.547-9.339-28.902-10.584
		c-0.051-1.225-1.09-7.698-3.112-19.422c1.496-0.252,5.378,0.124,11.654,1.118c6.27,0.993,11.757-0.322,16.46-3.945
		c1.912-12.074-3.54-23.62-16.358-34.625c-7.025-6.209-18.396-13.351-34.103-21.419c-2.306-6.918-6.903-17.719-13.798-32.4
		c9.568,3.867,18.483,7.918,26.744,12.155c-1.477-9.166-2.575-18.896-3.296-29.191c11.831,11.094,20.684,18.804,26.55,23.135
		c2.819,17.431,6.098,30.452,9.832,39.052c6.506,15.592,15.802,24.344,27.876,26.257c4.899-3.353,7.846-8.165,8.839-14.435
		c0.994-6.276,1.836-10.084,2.538-11.429c10.526,5.546,16.36,8.535,17.51,8.962c-0.779,6.429-0.401,16.682,1.135,30.758
		c1.53,14.075,1.774,24.426,0.724,31.057c-0.262,1.654-0.936,3.611-2.022,5.868C532.548,405.077,528.708,404.261,524.994,403.259z
		 M726.593,313.501c-1.74,3.431-3.703,6.83-5.89,10.197c-2.404-0.703-4.31-1.513-5.714-2.424
		c-5.63-3.656-13.16-10.763-22.596-21.319c-9.433-10.56-16.799-17.702-22.098-21.425c0.452-1.14,2.135-7.476,5.057-19.009
		c1.469,0.378,4.863,2.301,10.192,5.761c5.324,3.457,10.871,4.488,16.642,3.091c6.658-10.252,6.373-23.017-0.86-38.285
		c-3.892-8.53-11.375-19.679-22.443-33.438c0.707-7.257,0.901-18.995,0.573-35.211c7.168,7.424,13.664,14.752,19.488,21.982
		c2.379-8.974,5.333-18.31,8.862-28.008c6.296,14.947,11.247,25.591,14.845,31.933c-4.514,17.07-6.815,30.3-6.902,39.675
		c-0.398,16.89,4.534,28.667,14.786,35.325c5.84-1.071,10.489-4.268,13.946-9.592c3.461-5.329,5.779-8.465,6.967-9.408
		c7.36,9.348,11.474,14.452,12.351,15.309c-3.327,5.556-7.151,15.076-11.474,28.561c-4.327,13.481-8.315,23.036-11.971,28.666
		c-0.912,1.404-2.324,2.919-4.234,4.539C732.754,318.235,729.578,315.928,726.593,313.501z M947.27,313.501
		c-2.985,2.427-6.161,4.733-9.528,6.92c-1.91-1.62-3.322-3.135-4.234-4.539c-3.656-5.63-7.644-15.185-11.971-28.666
		c-4.322-13.484-8.147-23.004-11.474-28.561c0.877-0.857,4.991-5.961,12.351-15.309c1.188,0.943,3.507,4.08,6.967,9.408
		c3.457,5.324,8.106,8.521,13.946,9.592c10.252-6.658,15.184-18.435,14.786-35.325c-0.087-9.375-2.388-22.605-6.902-39.675
		c3.598-6.342,8.549-16.986,14.845-31.933c3.529,9.698,6.483,19.034,8.862,28.008c5.823-7.23,12.319-14.558,19.488-21.982
		c-0.328,16.216-0.134,27.953,0.573,35.211c-11.067,13.758-18.55,24.908-22.443,33.438c-7.233,15.268-7.518,28.033-0.86,38.285
		c5.77,1.397,11.318,0.367,16.642-3.091c5.329-3.461,8.722-5.383,10.192-5.761c2.922,11.533,4.604,17.869,5.057,19.009
		c-5.299,3.723-12.665,10.864-22.098,21.425c-9.436,10.556-16.965,17.662-22.596,21.319c-1.404,0.912-3.31,1.721-5.714,2.424
		C950.973,320.331,949.01,316.932,947.27,313.501z M1133.381,274.919c12.725,0.652,34.64,9.558,65.752,26.717
		c-0.655,8.112-2.503,14.832-5.542,20.171c-11.69-6.402-23.264-12.822-34.72-19.255
		C1144.989,294.558,1136.488,285.348,1133.381,274.919z M880.92,202.557c11.89-4.58,35.533-5.358,70.934-2.337
		c2.701,7.677,3.747,14.568,3.142,20.681c-13.283-1.093-26.468-2.251-39.55-3.468C899.513,215.777,888.001,210.82,880.92,202.557z
		 M620.854,239.135c8.999-9.02,30.282-19.347,63.851-30.986c5.591,5.915,9.348,11.785,11.282,17.616
		c-12.58,4.404-25.095,8.709-37.541,12.918C643.216,243.65,630.684,243.804,620.854,239.135z M398.15,378.33
		c4.552-11.9,19.795-29.991,45.728-54.278c7.513,3.13,13.333,6.964,17.471,11.504c-9.701,9.14-19.383,18.163-29.042,27.071
		C420.415,373.359,409.028,378.597,398.15,378.33z M251.314,596.073c-0.681-12.723,5.885-35.45,19.697-68.185
		c8.136-0.197,15.013,0.938,20.64,3.403c-5.145,12.295-10.32,24.477-15.52,36.543C269.632,582.475,261.361,591.892,251.314,596.073z
		 M205.738,854.714c-5.798-11.346-9.043-34.779-9.739-70.302c7.353-3.489,14.097-5.249,20.24-5.286
		c0.301,13.325,0.528,26.558,0.685,39.696C216.941,834.841,213.215,846.808,205.738,854.714z M269.3,1109.532
		c-9.911-8.007-22.407-28.094-37.491-60.263c5.298-6.178,10.743-10.529,16.34-13.061c5.695,12.05,11.284,24.047,16.771,35.985
		C271.452,1086.82,272.915,1099.268,269.3,1109.532z M431.011,1316.467c-12.311-3.284-31.896-16.551-58.761-39.804
		c2.327-7.799,5.532-13.988,9.615-18.578c10.104,8.692,20.09,17.378,29.958,26.053
		C423.739,1294.843,430.139,1305.62,431.011,1316.467z M662.909,1439.737c-12.582,2.008-35.871-2.147-69.87-12.462
		c-1.046-8.071-0.636-15.029,1.227-20.883c12.766,3.831,25.421,7.705,37.965,11.615
		C647.471,1422.941,657.701,1430.183,662.909,1439.737z M924.898,1458.029c-10.678,6.952-33.643,12.628-68.898,17.034
		c-4.239-6.948-6.694-13.471-7.373-19.576c13.22-1.692,26.357-3.301,39.407-4.831
		C903.963,1448.964,916.253,1451.419,924.898,1458.029z M1171.676,1368.179c-6.927,10.694-25.598,25.22-56.014,43.585
		c-6.698-4.623-11.594-9.583-14.698-14.885c11.389-6.923,22.736-13.736,34.035-20.441
		C1148.864,1368.413,1161.09,1365.656,1171.676,1368.179z M1360.573,1185.723c-1.979,12.587-13.127,33.452-33.443,62.599
		c-7.999-1.499-14.49-4.039-19.481-7.62c7.589-10.957,15.183-21.796,22.779-32.517
		C1339.829,1195.215,1349.877,1187.724,1360.573,1185.723z M1458.929,942.21c3.312,12.304,1.614,35.899-5.091,70.79
		c-7.918,1.884-14.88,2.203-20.896,0.963c2.476-13.096,5.005-26.087,7.583-38.971
		C1443.838,959.319,1449.971,948.388,1458.929,942.21z M1449.735,679.745c8.03,9.893,16.076,32.138,24.142,66.74
		c-6.467,4.942-12.697,8.065-18.698,9.379c-3.065-12.971-6.038-25.868-8.923-38.686
		C1442.908,701.513,1444.065,689.033,1449.735,679.745z M1334.582,443.711c11.359,5.772,27.758,22.821,49.201,51.151
		c-3.898,7.145-8.319,12.532-13.267,16.173c-8.076-10.603-16.037-21.176-23.887-31.712
		C1337.199,466.373,1333.179,454.502,1334.582,443.711z M1241.555,362.626c-9.658-8.908-19.341-17.931-29.042-27.071
		c4.138-4.54,9.958-8.374,17.471-11.504c25.933,24.287,41.175,42.378,45.728,54.278
		C1264.834,378.597,1253.448,373.359,1241.555,362.626z M1015.417,238.683c-12.446-4.209-24.962-8.514-37.541-12.918
		c1.934-5.831,5.691-11.701,11.282-17.616c33.569,11.639,54.852,21.967,63.851,30.986
		C1043.179,243.804,1030.646,243.65,1015.417,238.683z M758.416,217.433c-13.082,1.217-26.267,2.375-39.55,3.468
		c-0.605-6.113,0.44-13.004,3.142-20.681c35.401-3.021,59.044-2.243,70.934,2.337C785.861,210.82,774.349,215.777,758.416,217.433z
		 M514.992,302.553c-11.456,6.433-23.03,12.853-34.72,19.255c-3.039-5.339-4.887-12.059-5.542-20.171
		c31.112-17.159,53.027-26.065,65.752-26.717C537.374,285.348,528.874,294.558,514.992,302.553z M327.233,479.323
		c-7.849,10.537-15.811,21.109-23.887,31.712c-4.948-3.641-9.369-9.029-13.267-16.173c21.443-28.33,37.842-45.379,49.201-51.151
		C340.683,454.502,336.664,466.373,327.233,479.323z M227.607,717.178c-2.885,12.818-5.858,25.715-8.923,38.686
		c-6.001-1.314-12.232-4.437-18.698-9.379c8.067-34.602,16.113-56.848,24.142-66.74
		C229.798,689.033,230.955,701.513,227.607,717.178z M233.338,974.992c2.578,12.883,5.107,25.875,7.583,38.971
		c-6.017,1.241-12.979,0.922-20.897-0.963c-6.705-34.891-8.402-58.487-5.091-70.79C223.892,948.388,230.024,959.319,233.338,974.992
		z M343.435,1208.186c7.595,10.721,15.19,21.56,22.779,32.517c-4.992,3.581-11.482,6.121-19.481,7.62
		c-20.317-29.148-31.465-50.012-33.443-62.599C323.985,1187.724,334.034,1195.215,343.435,1208.186z M538.863,1376.438
		c11.299,6.705,22.646,13.518,34.035,20.441c-3.104,5.302-8,10.262-14.698,14.885c-30.416-18.364-49.086-32.891-56.014-43.585
		C512.772,1365.656,524.999,1368.413,538.863,1376.438z M785.829,1450.656c13.05,1.529,26.187,3.138,39.407,4.831
		c-0.679,6.106-3.134,12.628-7.373,19.576c-35.256-4.406-58.22-10.082-68.898-17.034
		C757.609,1451.419,769.9,1448.964,785.829,1450.656z M1041.632,1418.008c12.543-3.911,25.199-7.784,37.965-11.615
		c1.863,5.854,2.273,12.812,1.227,20.883c-34,10.315-57.288,14.47-69.87,12.462
		C1016.161,1430.183,1026.391,1422.941,1041.632,1418.008z M1262.04,1284.138c9.868-8.674,19.854-17.36,29.958-26.053
		c4.083,4.59,7.287,10.779,9.615,18.578c-26.865,23.252-46.45,36.52-58.761,39.804
		C1243.723,1305.62,1250.123,1294.843,1262.04,1284.138z M1408.942,1072.193c5.487-11.938,11.077-23.935,16.771-35.985
		c5.597,2.533,11.042,6.883,16.34,13.061c-15.084,32.169-27.58,52.255-37.491,60.263
		C1400.947,1099.268,1402.41,1086.82,1408.942,1072.193z M1456.939,818.822c0.157-13.138,0.384-26.371,0.685-39.696
		c6.143,0.037,12.887,1.797,20.24,5.286c-0.696,35.523-3.941,58.955-9.739,70.302
		C1460.647,846.808,1456.921,834.841,1456.939,818.822z M1397.731,567.833c-5.2-12.066-10.375-24.247-15.52-36.543
		c5.627-2.465,12.504-3.6,20.64-3.403c13.813,32.735,20.379,55.461,19.698,68.185
		C1412.502,591.892,1404.23,582.475,1397.731,567.833z M1130.621,172.966c30.948-2.613,47.561,3.283,49.842,17.686l0.506,3.196
		c-19.978-1.017-40.117-0.443-60.412,1.722c-11.971-16.532-25.02-31.881-39.144-46.047l2.714-1.762
		C1096.357,139.819,1111.854,148.22,1130.621,172.966z M1373.529,349.449c29.335,10.201,42.114,22.344,38.339,36.429l-0.838,3.126
		c-17.838-9.055-36.468-16.722-55.89-22.998c-4.212-19.971-9.89-39.301-17.03-57.988l3.196-0.506
		C1355.709,305.231,1366.45,319.209,1373.529,349.449z M1523.654,609.474c22.65,21.251,29.385,37.541,20.208,48.874l-2.036,2.515
		c-12.613-15.527-26.514-30.109-41.703-43.742c4.275-19.958,6.95-39.926,8.028-59.901l3.126,0.838
		C1525.361,561.831,1529.487,578.969,1523.654,609.474z M1555.039,908.08c12.048,28.626,11.575,46.247-1.418,52.868l-2.883,1.469
		c-5.207-19.315-11.975-38.29-20.306-56.923c12.023-16.494,22.589-33.647,31.698-51.457l2.515,2.036
		C1575.976,865.25,1572.775,882.585,1555.039,908.08z M1462.256,1193.636c-0.637,31.051-8.236,46.957-22.799,47.72l-3.231,0.169
		c3.099-19.762,4.634-39.85,4.602-60.261c17.692-10.178,34.322-21.551,49.887-34.116l1.469,2.883
		C1498.804,1163.024,1488.829,1177.558,1462.256,1193.636z M1261.349,1416.765c-13.211,28.108-26.623,39.547-40.237,34.321
		l-3.021-1.16c10.87-16.793,20.442-34.52,28.714-53.18c20.302-2.102,40.12-5.728,59.45-10.876l0.169,3.232
		C1307.188,1403.666,1292.164,1412.886,1261.349,1416.765z M987.057,1538.888c-23.502,20.304-40.407,25.3-50.718,14.988
		l-2.288-2.288c16.76-10.921,32.715-23.221,47.862-36.903c19.402,6.338,38.981,11.086,58.734,14.245l-1.16,3.021
		C1034.261,1545.566,1016.785,1547.878,987.057,1538.888z M686.806,1538.888c-29.728,8.99-47.204,6.677-52.43-6.937l-1.16-3.021
		c19.753-3.159,39.332-7.907,58.734-14.245c15.147,13.681,31.102,25.982,47.862,36.903l-2.288,2.288
		C727.213,1564.188,710.308,1559.193,686.806,1538.888z M412.513,1416.765c-30.815-3.879-45.839-13.1-45.076-27.662l0.169-3.232
		c19.33,5.148,39.148,8.774,59.45,10.876c8.272,18.659,17.845,36.386,28.714,53.18l-3.021,1.16
		C439.137,1456.313,425.725,1444.873,412.513,1416.765z M211.606,1193.636c-26.573-16.077-36.548-30.611-29.928-43.604l1.469-2.883
		c15.565,12.565,32.194,23.938,49.887,34.116c-0.032,20.411,1.503,40.499,4.602,60.261l-3.231-0.169
		C219.843,1240.593,212.243,1224.687,211.606,1193.636z M118.824,908.08c-17.736-25.495-20.937-42.83-9.605-52.007l2.515-2.036
		c9.109,17.81,19.675,34.963,31.698,51.457c-8.331,18.633-15.1,37.609-20.306,56.923l-2.883-1.469
		C107.249,954.328,106.776,936.706,118.824,908.08z M150.208,609.474c-5.833-30.505-1.707-47.643,12.379-51.418l3.126-0.838
		c1.077,19.975,3.753,39.943,8.028,59.901c-15.19,13.634-29.091,28.216-41.704,43.742l-2.036-2.515
		C120.824,647.015,127.559,630.725,150.208,609.474z M300.334,349.449c7.079-30.241,17.819-44.218,32.222-41.937l3.196,0.506
		c-7.14,18.686-12.818,38.016-17.03,57.988c-19.422,6.277-38.052,13.944-55.89,22.998l-0.838-3.126
		C258.22,371.793,270.999,359.65,300.334,349.449z M543.242,172.966c18.767-24.747,34.264-33.148,46.494-25.206l2.714,1.762
		c-14.123,14.166-27.172,29.516-39.144,46.047c-20.296-2.165-40.434-2.739-60.412-1.722l0.506-3.196
		C495.681,176.249,512.294,170.354,543.242,172.966z M836.931,110.541c27.21-14.974,44.784-16.346,52.726-4.116l1.762,2.714
		c-18.664,7.197-36.828,15.912-54.489,26.145c-17.66-10.233-35.824-18.948-54.489-26.145l1.762-2.714
		C792.147,94.195,809.722,95.567,836.931,110.541z M1115.376,345.116c0.995-10.595,0.917-17.983-0.235-22.169
		c5.21-0.825,12.382-4.208,21.51-10.141c9.133-5.94,13.936-8.942,14.407-9.016c2.608-0.413,8.833,2.116,18.677,7.599
		c-1.008,2.827-8.365,8.844-22.076,18.058c-13.706,9.207-22.339,14.095-25.891,14.658L1115.376,345.116z M893.024,274.008
		c-3.4-10.084-6.476-16.801-9.231-20.156c4.424-2.873,9.6-8.88,15.525-18.013c5.927-9.141,9.094-13.837,9.494-14.097
		c2.214-1.438,8.93-1.659,20.153-0.655c0.229,2.993-4.045,11.482-12.823,25.476c-8.776,13.985-14.675,21.963-17.691,23.921
		L893.024,274.008z M660.973,299.486c-7.208-7.829-12.75-12.714-16.632-14.659c2.873-4.424,5.158-12.017,6.856-22.771
		c1.697-10.761,2.68-16.339,2.94-16.74c1.438-2.214,7.483-5.148,18.144-8.795c1.426,2.641,0.975,12.135-1.352,28.488
		c-2.329,16.346-4.473,26.033-6.432,29.048L660.973,299.486z M459.347,417.145c-9.769-4.221-16.819-6.429-21.156-6.627
		c0.825-5.21-0.176-13.076-2.998-23.591c-2.827-10.521-4.198-16.017-4.123-16.488c0.413-2.608,4.742-7.747,12.998-15.415
		c2.377,1.833,5.827,10.689,10.352,26.576c4.521,15.88,6.502,25.602,5.939,29.153L459.347,417.145z M323.008,606.641
		c-10.641,0.118-17.98,0.967-22.023,2.551c-1.365-5.095-5.479-11.874-12.334-20.332c-6.862-8.462-10.349-12.925-10.473-13.386
		c-0.683-2.55,1.181-9.006,5.605-19.369c2.917,0.707,9.67,7.395,20.266,20.067c10.589,12.668,16.353,20.744,17.284,24.217
		L323.008,606.641z M275.532,835.207c-9.673,4.436-16.032,8.197-19.081,11.288c-3.32-4.1-9.835-8.619-19.537-13.557
		c-9.71-4.939-14.712-7.598-15.012-7.969c-1.662-2.052-2.584-8.708-2.758-19.974c2.953-0.54,11.842,2.822,26.676,10.089
		c14.826,7.266,23.376,12.299,25.639,15.093L275.532,835.207z M325.126,1063.324c-7.033,7.987-11.312,14.009-12.84,18.073
		c-4.7-2.395-12.49-3.874-23.363-4.438c-10.88-0.563-16.53-0.957-16.955-1.174c-2.353-1.199-5.902-6.904-10.643-17.125
		c2.478-1.695,11.966-2.238,28.474-1.633c16.5,0.608,26.358,1.728,29.561,3.36L325.126,1063.324z M463.216,1251.547
		c-3.176,10.156-4.636,17.399-4.379,21.733c-5.268-0.276-12.986,1.542-23.148,5.448c-10.168,3.911-15.49,5.849-15.967,5.824
		c-2.637-0.138-8.2-3.906-16.689-11.316c1.574-2.556,10.021-6.912,25.348-13.073c15.321-6.156,24.782-9.142,28.372-8.954
		L463.216,1251.547z M665.925,1367.331c1.229,10.57,2.842,17.78,4.839,21.635c-4.925,1.891-11.236,6.69-18.931,14.392
		c-7.698,7.709-11.772,11.644-12.218,11.815c-2.465,0.946-9.08-0.233-19.849-3.549c0.398-2.975,6.344-10.39,17.839-22.253
		c11.492-11.855,18.921-18.432,22.277-19.72L665.925,1367.331z M898.203,1390.656c5.422,9.157,9.828,15.088,13.22,17.797
		c-3.73,3.73-7.544,10.682-11.441,20.848c-3.897,10.173-6.018,15.425-6.356,15.763c-1.867,1.867-8.39,3.48-19.576,4.83
		c-0.846-2.88,1.569-12.072,7.246-27.585c5.677-15.505,9.788-24.534,12.331-27.076L898.203,1390.656z M1119.886,1317.489
		c8.678,6.159,15.115,9.786,19.316,10.881c-1.891,4.925-2.547,12.827-1.972,23.698c0.578,10.879,0.776,16.539,0.605,16.985
		c-0.946,2.465-6.249,6.592-15.919,12.375c-1.944-2.287-3.477-11.667-4.6-28.147c-1.12-16.473-1.037-26.394,0.252-29.751
		L1119.886,1317.489z M1292.643,1160.48c10.433,2.097,17.788,2.792,22.072,2.084c0.276,5.268,2.891,12.754,7.837,22.452
		c4.953,9.703,7.436,14.794,7.461,15.271c0.138,2.637-3.028,8.563-9.509,17.78c-2.706-1.298-7.922-9.244-15.651-23.843
		c-7.724-14.593-11.683-23.69-11.871-27.281L1292.643,1160.48z M1386.604,946.779c10.384-2.328,17.386-4.685,21.011-7.074
		c2.395,4.7,7.828,10.475,16.292,17.323c8.471,6.85,12.81,10.49,13.027,10.916c1.199,2.353,0.717,9.055-1.455,20.111
		c-3.001-0.085-10.997-5.223-23.996-15.415c-12.992-10.19-20.308-16.891-21.941-20.094L1386.604,946.779z M1385.521,713.336
		c8.54-6.35,13.978-11.351,16.317-15.008c4.1,3.32,11.412,6.386,21.929,9.199c10.525,2.812,15.97,4.373,16.341,4.673
		c2.052,1.662,4.338,7.98,6.85,18.964c-2.776,1.143-12.17-0.299-28.191-4.323c-16.013-4.025-25.423-7.17-28.217-9.433
		L1385.521,713.336z M1289.583,500.516c5.219-9.274,8.152-16.055,8.802-20.348c5.095,1.365,13.023,1.192,23.775-0.516
		c10.759-1.712,16.368-2.501,16.829-2.377c2.55,0.683,7.209,5.526,13.972,14.538c-2.071,2.173-11.24,4.677-27.512,7.517
		c-16.266,2.836-26.141,3.79-29.614,2.86L1289.583,500.516z M1213.503,410.753c-0.562-3.551,1.419-13.273,5.939-29.153
		c4.526-15.887,7.975-24.743,10.352-26.576c8.256,7.668,12.585,12.807,12.998,15.415c0.075,0.472-1.296,5.967-4.123,16.488
		c-2.822,10.515-3.823,18.38-2.998,23.591c-4.337,0.198-11.387,2.406-21.156,6.627L1213.503,410.753z M1009.364,294.058
		c-1.958-3.015-4.103-12.702-6.432-29.048c-2.327-16.354-2.779-25.847-1.352-28.488c10.661,3.647,16.706,6.581,18.144,8.795
		c0.26,0.4,1.243,5.978,2.94,16.74c1.698,10.754,3.983,18.346,6.856,22.771c-3.882,1.945-9.424,6.83-16.632,14.659L1009.364,294.058
		z M775.41,270.483c-3.015-1.958-8.914-9.936-17.691-23.921c-8.778-13.993-13.052-22.482-12.823-25.476
		c11.223-1.005,17.938-0.783,20.153,0.655c0.4,0.26,3.567,4.956,9.494,14.097c5.925,9.133,11.101,15.14,15.525,18.013
		c-2.755,3.355-5.831,10.073-9.231,20.156L775.41,270.483z M552.094,344.104c-3.551-0.562-12.185-5.451-25.891-14.658
		c-13.711-9.213-21.068-15.23-22.076-18.058c9.844-5.483,16.069-8.012,18.677-7.599c0.472,0.075,5.275,3.076,14.407,9.016
		c9.128,5.934,16.299,9.316,21.51,10.141c-1.152,4.186-1.23,11.574-0.235,22.169L552.094,344.104z M378.028,502.191
		c-3.473,0.931-13.348-0.023-29.614-2.86c-16.273-2.84-25.441-5.345-27.512-7.517c6.763-9.012,11.421-13.855,13.971-14.538
		c0.461-0.124,6.07,0.665,16.829,2.377c10.752,1.708,18.679,1.881,23.775,0.516c0.65,4.293,3.584,11.073,8.802,20.348
		L378.028,502.191z M283.311,717.409c-2.794,2.263-12.204,5.408-28.217,9.433c-16.021,4.024-25.415,5.465-28.191,4.323
		c2.513-10.984,4.798-17.302,6.85-18.964c0.371-0.301,5.816-1.861,16.341-4.673c10.517-2.813,17.83-5.879,21.929-9.199
		c2.34,3.657,7.778,8.658,16.317,15.008L283.311,717.409z M284.32,952.546c-1.632,3.204-8.949,9.904-21.941,20.094
		c-12.999,10.192-20.995,15.33-23.996,15.415c-2.172-11.056-2.654-17.758-1.455-20.111c0.217-0.425,4.556-4.066,13.027-10.916
		c8.464-6.848,13.897-12.623,16.292-17.323c3.625,2.389,10.627,4.746,21.011,7.074L284.32,952.546z M380.881,1166.943
		c-0.188,3.591-4.147,12.688-11.871,27.281c-7.73,14.598-12.945,22.544-15.651,23.843c-6.482-9.217-9.648-15.144-9.509-17.78
		c0.025-0.477,2.508-5.567,7.461-15.271c4.947-9.698,7.561-17.184,7.837-22.452c4.283,0.708,11.639,0.014,22.072-2.084
		L380.881,1166.943z M556.296,1323.531c1.289,3.357,1.372,13.278,0.252,29.751c-1.124,16.48-2.656,25.86-4.6,28.147
		c-9.67-5.784-14.973-9.91-15.919-12.375c-0.171-0.446,0.027-6.106,0.605-16.985c0.575-10.872-0.082-18.774-1.972-23.698
		c4.201-1.095,10.638-4.721,19.316-10.881L556.296,1323.531z M780.236,1395.232c2.542,2.542,6.654,11.572,12.331,27.076
		c5.677,15.513,8.092,24.705,7.246,27.585c-11.186-1.351-17.709-2.963-19.576-4.83c-0.338-0.338-2.459-5.589-6.356-15.763
		c-3.897-10.166-7.711-17.117-11.441-20.848c3.393-2.709,7.798-8.64,13.22-17.797L780.236,1395.232z M1013.979,1369.65
		c3.357,1.288,10.785,7.865,22.277,19.72c11.495,11.862,17.441,19.278,17.839,22.253c-10.769,3.316-17.384,4.496-19.849,3.549
		c-0.446-0.171-4.52-4.106-12.218-11.815c-7.695-7.702-14.006-12.501-18.931-14.392c1.997-3.855,3.61-11.065,4.839-21.635
		L1013.979,1369.65z M1217.109,1251.208c3.591-0.188,13.052,2.798,28.372,8.954c15.327,6.161,23.774,10.517,25.348,13.073
		c-8.489,7.409-14.052,11.178-16.689,11.316c-0.477,0.025-5.799-1.913-15.967-5.824c-10.162-3.906-17.88-5.724-23.148-5.448
		c0.257-4.334-1.203-11.576-4.379-21.733L1217.109,1251.208z M1354.503,1060.386c3.203-1.632,13.062-2.752,29.561-3.36
		c16.507-0.605,25.996-0.062,28.474,1.633c-4.741,10.222-8.291,15.927-10.643,17.125c-0.426,0.217-6.076,0.611-16.955,1.174
		c-10.872,0.565-18.662,2.044-23.362,4.438c-1.528-4.064-5.808-10.086-12.84-18.073L1354.503,1060.386z M1402.404,830.178
		c2.263-2.794,10.813-7.827,25.639-15.093c14.834-7.267,23.724-10.63,26.676-10.089c-0.174,11.266-1.096,17.922-2.758,19.974
		c-0.301,0.371-5.302,3.03-15.012,7.969c-9.703,4.938-16.218,9.458-19.537,13.557c-3.049-3.091-9.408-6.852-19.081-11.288
		L1402.404,830.178z M1352.529,600.389c0.931-3.473,6.695-11.548,17.284-24.217c10.596-12.672,17.349-19.36,20.266-20.067
		c4.424,10.363,6.288,16.818,5.605,19.369c-0.124,0.461-3.611,4.924-10.473,13.386c-6.855,8.458-10.969,15.236-12.334,20.332
		c-4.042-1.583-11.381-2.433-22.022-2.551L1352.529,600.389z M1093.671,258.639c3.426-9.04,6.795-16.855,10.12-23.445
		c18.943,26.122,32.314,49.242,40.109,69.365c-6.862,5.694-13.156,8.875-18.874,9.542L1093.671,258.639z M838.022,203.835
		c-0.548-9.652-0.648-18.161-0.291-25.534c27.93,16.159,49.549,31.841,64.854,47.055c-3.953,7.993-8.408,13.459-13.362,16.394
		L838.022,203.835z M582.185,257.751c-4.426-8.595-7.979-16.328-10.651-23.208c32.088,3.402,58.216,8.935,78.386,16.608
		c-0.36,8.91-2.207,15.715-5.538,20.411L582.185,257.751z M370.395,411.065c-7.539-6.052-13.93-11.671-19.17-16.869
		c30.697-9.944,56.817-15.516,78.365-16.711c3.295,8.286,4.375,15.254,3.242,20.899L370.395,411.065z M239.274,637.266
		c-9.349-2.462-17.473-4.996-24.374-7.614c23.999-21.57,45.594-37.284,64.793-47.14c6.38,6.229,10.202,12.156,11.463,17.773
		L239.274,637.266z M211.493,897.243c-9.542,1.553-17.994,2.542-25.363,2.958c13.151-29.466,26.487-52.606,40.018-69.418
		c8.362,3.096,14.264,6.955,17.701,11.575L211.493,897.243z M291.856,1146.044c-8.085,5.3-15.404,9.641-21.967,13.019
		c0.029-32.267,2.801-58.831,8.323-79.693c8.899-0.573,15.86,0.552,20.878,3.374L291.856,1146.044z M466.468,1340.647
		c-5.23,8.131-10.151,15.073-14.773,20.828c-13.098-29.49-21.37-54.884-24.81-76.188c7.896-4.143,14.713-5.946,20.446-5.409
		L466.468,1340.647z M705.136,1447.406c-1.471,9.555-3.142,17.899-5.024,25.036c-23.96-21.613-41.846-41.447-53.654-59.51
		c5.528-6.996,11.023-11.416,16.478-13.258L705.136,1447.406z M966.593,1447.859c2.542,9.327,4.409,17.63,5.593,24.915
		c-30.679-9.999-55.086-20.844-73.221-32.542c2.205-8.64,5.426-14.913,9.661-18.814L966.593,1447.859z M1205.63,1341.93
		c6.116,7.487,11.199,14.312,15.244,20.486c-32.094,3.344-58.802,3.364-80.126,0.052c-1.5-8.79-1.108-15.83,1.174-21.117
		L1205.63,1341.93z M1380.916,1147.933c8.633,4.352,16.052,8.52,22.258,12.515c-27.959,16.109-52.35,26.99-73.178,32.638
		c-4.946-7.42-7.451-14.011-7.517-19.768L1380.916,1147.933z M1462.141,899.413c9.656,0.464,18.13,1.254,25.424,2.38
		c-18.99,26.088-36.846,45.949-53.576,59.581c-7.536-4.767-12.506-9.769-14.907-15.002L1462.141,899.413z M1435.263,639.341
		c9.01-3.503,17.072-6.228,24.194-8.167c-6.737,31.556-14.971,56.963-24.711,76.221c-8.823-1.29-15.398-3.838-19.72-7.642
		L1435.263,639.341z M1304.927,412.686c6.807-6.865,13.063-12.634,18.781-17.302c6.681,31.568,9.492,58.128,8.428,79.682
		c-8.585,2.411-15.628,2.757-21.124,1.04L1304.927,412.686z M1241.03,398.384c-1.133-5.645-0.052-12.613,3.242-20.899
		c21.547,1.194,47.667,6.767,78.365,16.711c-5.24,5.198-11.63,10.818-19.17,16.869L1241.03,398.384z M1029.481,271.563
		c-3.331-4.696-5.178-11.501-5.538-20.411c20.17-7.673,46.299-13.206,78.386-16.608c-2.673,6.88-6.225,14.613-10.651,23.208
		L1029.481,271.563z M784.638,241.75c-4.953-2.935-9.409-8.401-13.362-16.394c15.306-15.214,36.924-30.896,64.854-47.055
		c0.357,7.372,0.257,15.882-0.291,25.534L784.638,241.75z M548.837,314.102c-5.719-0.667-12.012-3.848-18.874-9.542
		c7.794-20.124,21.166-43.243,40.109-69.365c3.325,6.59,6.694,14.404,10.12,23.445L548.837,314.102z M362.85,476.107
		c-5.496,1.717-12.539,1.371-21.124-1.04c-1.064-21.554,1.747-48.114,8.428-79.682c5.718,4.668,11.974,10.436,18.781,17.302
		L362.85,476.107z M258.836,699.754c-4.322,3.804-10.897,6.352-19.72,7.642c-9.739-19.258-17.973-44.665-24.711-76.221
		c7.122,1.939,15.184,4.664,24.194,8.167L258.836,699.754z M254.78,946.372c-2.401,5.233-7.371,10.235-14.907,15.002
		c-16.73-13.632-34.586-33.493-53.576-59.581c7.295-1.125,15.768-1.915,25.424-2.38L254.78,946.372z M351.383,1173.318
		c-0.065,5.757-2.571,12.349-7.517,19.768c-20.828-5.648-45.219-16.53-73.178-32.638c6.206-3.995,13.626-8.163,22.258-12.515
		L351.383,1173.318z M531.942,1341.352c2.282,5.286,2.674,12.327,1.174,21.117c-21.325,3.312-48.033,3.292-80.126-0.052
		c4.045-6.174,9.127-12.999,15.244-20.486L531.942,1341.352z M765.236,1421.419c4.235,3.901,7.456,10.173,9.661,18.814
		c-18.134,11.699-42.541,22.544-73.221,32.542c1.184-7.286,3.051-15.588,5.593-24.915L765.236,1421.419z M1010.927,1399.674
		c5.455,1.841,10.95,6.261,16.478,13.258c-11.808,18.063-29.694,37.898-53.654,59.51c-1.882-7.137-3.553-15.481-5.024-25.036
		L1010.927,1399.674z M1226.532,1279.878c5.733-0.537,12.55,1.266,20.446,5.409c-3.44,21.304-11.712,46.699-24.81,76.188
		c-4.622-5.755-9.543-12.698-14.773-20.828L1226.532,1279.878z M1374.772,1082.744c5.019-2.822,11.98-3.948,20.878-3.374
		c5.523,20.862,8.294,47.425,8.323,79.693c-6.563-3.377-13.882-7.718-21.967-13.019L1374.772,1082.744z M1430.015,842.358
		c3.437-4.619,9.338-8.479,17.701-11.575c13.53,16.812,26.867,39.952,40.018,69.418c-7.369-0.416-15.822-1.405-25.364-2.958
		L1430.015,842.358z M1382.707,600.286c1.261-5.618,5.082-11.544,11.463-17.773c19.199,9.855,40.794,25.57,64.793,47.14
		c-6.901,2.618-15.025,5.152-24.374,7.614L1382.707,600.286z M1087.766,269.221c2.353-0.115,4.728-0.31,7.125-0.582
		c3.157,4.596,7.791,11.626,13.898,21.097l-5.327,0.844c-2.131,0.337-5.047,0.31-8.748-0.071c-4.719-0.709-7.673-0.969-8.86-0.781
		c-2.315-0.059-4.726-0.049-7.232,0.029c-1.619-1.915-3.224-3.713-4.817-5.394c-0.655-1.008-2.824-3.029-6.509-6.062
		c-2.759-2.495-4.731-4.644-5.906-6.454l-2.937-4.523c11.124-1.798,19.449-3.058,24.977-3.788
		C1084.832,265.5,1086.277,267.395,1087.766,269.221z M1295.228,419.951c2.197,0.852,4.445,1.64,6.746,2.366
		c1.014,5.483,2.389,13.79,4.116,24.926l-5.209-1.396c-2.084-0.558-4.737-1.77-7.963-3.623c-4.023-2.567-6.615-4.006-7.777-4.317
		c-2.091-0.995-4.297-1.967-6.619-2.914c-0.7-2.408-1.436-4.703-2.207-6.887c-0.188-1.187-1.348-3.916-3.481-8.185
		c-1.506-3.402-2.433-6.167-2.77-8.298l-0.844-5.327c10.894,2.882,19.012,5.117,24.359,6.699
		C1294.062,415.359,1294.611,417.678,1295.228,419.951z M1423.448,642.033c1.66,1.671,3.394,3.307,5.2,4.906
		c-1.303,5.422-3.427,13.569-6.378,24.445l-4.191-3.394c-1.677-1.358-3.608-3.543-5.801-6.548c-2.631-3.981-4.414-6.35-5.349-7.107
		c-1.505-1.76-3.126-3.544-4.861-5.354c0.34-2.484,0.601-4.88,0.785-7.189c0.311-1.161,0.361-4.126,0.15-8.893
		c0.008-3.72,0.286-6.624,0.844-8.707l1.396-5.209c8.78,7.064,15.287,12.407,19.528,16.027
		C1424.25,637.364,1423.808,639.705,1423.448,642.033z M1450.253,897.067c0.837,2.202,1.755,4.401,2.756,6.597
		c-3.396,4.423-8.65,11.003-15.769,19.737l-2.448-4.805c-0.979-1.922-1.855-4.704-2.636-8.342c-0.784-4.707-1.45-7.597-1.995-8.668
		c-0.66-2.22-1.414-4.509-2.263-6.869c1.321-2.131,2.535-4.214,3.641-6.248c0.757-0.934,2.008-3.622,3.754-8.064
		c1.521-3.395,2.955-5.935,4.313-7.611l3.394-4.191c5.148,10.024,8.919,17.552,11.321,22.584
		C1452.885,893.127,1451.529,895.087,1450.253,897.067z M1371.009,1140.954c-0.131,2.352-0.186,4.734-0.166,7.147
		c-4.901,2.659-12.377,6.533-22.434,11.617l-0.282-5.386c-0.113-2.154,0.219-5.052,0.985-8.693c1.198-4.62,1.766-7.53,1.703-8.73
		c0.3-2.296,0.542-4.695,0.727-7.195c2.073-1.41,4.029-2.819,5.868-4.227c1.071-0.546,3.308-2.492,6.709-5.84
		c2.77-2.483,5.114-4.22,7.036-5.199l4.805-2.448c0.626,11.251,1.009,19.663,1.156,25.237
		C1375.016,1138.425,1372.98,1139.664,1371.009,1140.954z M1199.418,1331.525c-1.077,2.095-2.096,4.249-3.058,6.462
		c-5.559,0.436-13.964,0.934-25.219,1.488l1.933-5.035c0.773-2.014,2.255-4.526,4.435-7.541c2.973-3.733,4.676-6.161,5.106-7.283
		c1.208-1.976,2.405-4.068,3.59-6.278c2.468-0.444,4.828-0.936,7.08-1.475c1.201-0.063,4.035-0.932,8.504-2.606
		c3.541-1.142,6.388-1.775,8.542-1.888l5.386-0.282c-4.005,10.533-7.076,18.373-9.208,23.525
		C1204.107,1330.844,1201.744,1331.148,1199.418,1331.525z M965.15,1435.827c-1.836,1.476-3.643,3.03-5.422,4.659
		c-5.256-1.863-13.137-4.827-23.644-8.898l3.814-3.814c1.525-1.525,3.901-3.218,7.119-5.085c4.235-2.201,6.777-3.726,7.627-4.576
		c1.907-1.313,3.852-2.738,5.833-4.275c2.435,0.598,4.791,1.108,7.068,1.532c1.122,0.431,4.065,0.79,8.829,1.078
		c3.699,0.397,6.557,0.977,8.571,1.75l5.035,1.933c-7.943,7.993-13.937,13.906-17.981,17.746
		C969.711,1437.113,967.428,1436.429,965.15,1435.827z M708.712,1435.827c-2.278,0.602-4.56,1.286-6.849,2.051
		c-4.043-3.84-10.038-9.753-17.981-17.746l5.035-1.933c2.014-0.773,4.872-1.353,8.571-1.75c4.764-0.288,7.707-0.648,8.829-1.078
		c2.277-0.424,4.632-0.935,7.068-1.532c1.982,1.536,3.926,2.961,5.833,4.275c0.85,0.85,3.393,2.375,7.627,4.576
		c3.218,1.867,5.593,3.559,7.119,5.085l3.814,3.814c-10.507,4.072-18.389,7.035-23.644,8.898
		C712.355,1438.857,710.548,1437.304,708.712,1435.827z M474.444,1331.525c-2.326-0.376-4.689-0.68-7.091-0.912
		c-2.132-5.152-5.203-12.992-9.208-23.525l5.386,0.282c2.154,0.113,5.001,0.746,8.542,1.888c4.469,1.674,7.304,2.543,8.504,2.606
		c2.252,0.539,4.612,1.03,7.08,1.475c1.185,2.209,2.382,4.302,3.59,6.278c0.431,1.122,2.133,3.55,5.106,7.283
		c2.18,3.014,3.662,5.527,4.435,7.541l1.933,5.035c-11.255-0.554-19.66-1.052-25.219-1.488
		C476.54,1335.774,475.521,1333.62,474.444,1331.525z M302.854,1140.954c-1.971-1.29-4.007-2.529-6.107-3.717
		c0.148-5.574,0.531-13.985,1.156-25.237l4.805,2.448c1.922,0.979,4.266,2.716,7.036,5.199c3.402,3.347,5.638,5.294,6.709,5.84
		c1.838,1.408,3.794,2.817,5.868,4.227c0.184,2.5,0.426,4.899,0.727,7.195c-0.063,1.201,0.505,4.111,1.703,8.73
		c0.766,3.641,1.098,6.538,0.985,8.693l-0.282,5.386c-10.057-5.084-17.533-8.958-22.434-11.617
		C303.04,1145.688,302.985,1143.306,302.854,1140.954z M223.61,897.067c-1.276-1.98-2.632-3.94-4.067-5.88
		c2.402-5.032,6.173-12.56,11.321-22.584l3.394,4.191c1.358,1.677,2.792,4.216,4.313,7.611c1.746,4.441,2.997,7.129,3.754,8.064
		c1.107,2.034,2.321,4.117,3.641,6.248c-0.849,2.359-1.603,4.649-2.263,6.869c-0.546,1.071-1.211,3.961-1.995,8.668
		c-0.781,3.637-1.657,6.419-2.636,8.342l-2.448,4.805c-7.119-8.735-12.373-15.315-15.769-19.737
		C221.854,901.468,222.773,899.269,223.61,897.067z M250.415,642.033c-0.361-2.328-0.802-4.67-1.324-7.025
		c4.241-3.62,10.748-8.964,19.528-16.027l1.396,5.209c0.558,2.084,0.836,4.987,0.844,8.707c-0.211,4.768-0.162,7.732,0.15,8.893
		c0.184,2.308,0.445,4.705,0.785,7.189c-1.735,1.81-3.355,3.595-4.861,5.354c-0.934,0.757-2.717,3.126-5.348,7.107
		c-2.193,3.005-4.124,5.191-5.801,6.548l-4.191,3.394c-2.951-10.875-5.075-19.023-6.378-24.445
		C247.021,645.34,248.755,643.705,250.415,642.033z M378.634,419.951c0.617-2.273,1.167-4.592,1.648-6.957
		c5.347-1.582,13.465-3.817,24.359-6.699l-0.844,5.327c-0.337,2.131-1.265,4.896-2.77,8.298c-2.132,4.27-3.293,6.998-3.481,8.185
		c-0.771,2.184-1.507,4.479-2.207,6.887c-2.321,0.948-4.527,1.919-6.618,2.914c-1.161,0.311-3.754,1.75-7.777,4.317
		c-3.226,1.853-5.879,3.064-7.963,3.623l-5.209,1.396c1.727-11.135,3.102-19.443,4.116-24.926
		C374.189,421.592,376.438,420.803,378.634,419.951z M586.097,269.221c1.489-1.826,2.934-3.721,4.335-5.685
		c5.528,0.73,13.853,1.99,24.977,3.788l-2.937,4.523c-1.175,1.809-3.147,3.958-5.906,6.454c-3.685,3.033-5.854,5.054-6.509,6.062
		c-1.593,1.681-3.198,3.479-4.817,5.394c-2.506-0.078-4.917-0.088-7.232-0.029c-1.187-0.188-4.141,0.072-8.86,0.781
		c-3.701,0.381-6.617,0.408-8.748,0.071l-5.327-0.844c6.107-9.47,10.741-16.5,13.898-21.097
		C581.369,268.911,583.744,269.105,586.097,269.221z M836.931,215.904c2.103-1.063,4.193-2.206,6.272-3.43
		c4.753,2.915,11.846,7.452,21.277,13.62l-4.523,2.937c-1.809,1.175-4.485,2.336-8.02,3.494c-4.6,1.272-7.404,2.236-8.412,2.891
		c-2.139,0.888-4.337,1.878-6.594,2.968c-2.258-1.091-4.456-2.08-6.594-2.968c-1.008-0.655-3.812-1.618-8.412-2.891
		c-3.536-1.157-6.211-2.319-8.02-3.494l-4.523-2.937c9.431-6.167,16.524-10.705,21.277-13.62
		C832.738,213.698,834.829,214.842,836.931,215.904z M1036.105,426.109c3.434-10.498,6.868-20.99,10.303-31.482
		c4.031-11.32,11.309-19.026,21.821-23.114l0.039,2.542c0.9,5.682,3.248,8.222,7.032,7.623c7.58-1.201,12.472-19.329,14.685-54.382
		c-1.991-1.869-6.17-2.18-12.524-0.929c1.073-5.511,2.704-12.805,4.906-21.891l6.336-1.368c8.214-1.79,14.253-0.437,18.114,4.048
		c2.932,3.176,5.07,9.026,6.42,17.549c2.025,12.784-4.77,32.301-20.393,58.562c-15.619,26.255-29.345,40.323-41.186,42.198
		L1036.105,426.109z M853.549,380.241c-1.133-10.987-2.263-21.969-3.393-32.951c-0.922-11.982,2.593-21.98,10.533-29.991
		l1.069,2.307c3.133,4.825,6.311,6.191,9.524,4.104c6.436-4.18,3.532-22.731-8.704-55.653c-2.579-0.897-6.523,0.518-11.819,4.246
		c-1.262-5.471-2.738-12.798-4.422-21.993l5.232-3.826c6.776-4.976,12.843-6.197,18.195-3.67c3.97,1.709,8.303,6.183,13.002,13.42
		c7.05,10.855,8.781,31.448,5.189,61.794c-3.589,30.338-10.407,48.772-20.462,55.302L853.549,380.241z M668.12,412.591
		c-5.504-9.576-11.003-19.149-16.502-28.722c-5.715-10.571-6.572-21.135-2.576-31.682l1.915,1.672
		c4.825,3.133,8.283,3.088,10.37-0.125c4.18-6.436-6.019-22.203-30.588-47.301c-2.721,0.229-5.748,3.126-9.07,8.686
		c-3.378-4.484-7.707-10.578-12.985-18.293l3.223-5.624c4.166-7.302,9.212-10.885,15.129-10.753
		c4.322-0.054,10.1,2.272,17.337,6.972c10.855,7.05,20.813,25.158,29.875,54.341c9.06,29.175,10.33,48.789,3.8,58.843
		L668.12,412.591z M511.879,517.564c-8.923-6.51-17.84-13.018-26.758-19.527c-9.521-7.332-14.6-16.635-15.239-27.896l2.43,0.749
		c5.682,0.9,8.823-0.548,9.423-4.332c1.201-7.58-14.529-17.835-47.182-30.771c-2.393,1.316-3.979,5.194-4.753,11.624
		c-4.91-2.723-11.343-6.529-19.303-11.43l0.657-6.448c0.836-8.365,3.989-13.691,9.447-15.977c3.926-1.807,10.151-2.033,18.674-0.683
		c12.784,2.025,29.246,14.518,49.394,37.492c20.144,22.967,29.281,40.369,27.405,52.21L511.879,517.564z M411.844,677.011
		c-10.799-2.318-21.593-4.637-32.387-6.956c-11.68-2.826-20.103-9.258-25.268-19.286l2.524-0.304
		c5.557-1.489,7.838-4.089,6.846-7.79c-1.986-7.413-20.527-10.383-55.619-8.92c-1.65,2.175-1.523,6.364,0.386,12.552
		c-5.593-0.49-13.018-1.351-22.283-2.59l-2.022-6.158c-2.639-7.982-1.925-14.129,2.132-18.438c2.852-3.248,8.446-5.986,16.781-8.219
		c12.503-3.35,32.622,1.367,60.373,14.16c27.744,12.789,43.169,24.97,46.272,36.55L411.844,677.011z M385.309,863.362
		c-10.808,2.275-21.612,4.547-32.416,6.818c-11.82,2.169-22.131-0.281-30.928-7.341l2.182-1.304c4.471-3.62,5.497-6.924,3.086-9.901
		c-4.829-5.964-22.976-1.137-54.438,14.474c-0.623,2.659,1.197,6.433,5.458,11.31c-5.309,1.827-12.442,4.061-21.411,6.697
		l-4.352-4.803c-5.657-6.219-7.505-12.125-5.552-17.711c1.285-4.127,5.282-8.904,11.988-14.334
		c10.059-8.146,30.358-12.02,60.913-11.62c30.547,0.399,49.593,5.252,57.138,14.569L385.309,863.362z M436.864,1044.394
		c-8.948,6.474-17.894,12.944-26.84,19.414c-9.916,6.789-20.332,8.745-31.24,5.873l1.463-2.079c2.612-5.126,2.206-8.561-1.208-10.3
		c-6.838-3.484-21.452,8.307-43.845,35.364c0.512,2.682,3.71,5.39,9.586,8.113c-4.107,3.828-9.715,8.77-16.836,14.826l-5.93-2.618
		c-7.698-3.38-11.788-8.024-12.276-13.922c-0.505-4.293,1.204-10.282,5.121-17.971c5.876-11.533,22.845-23.328,50.92-35.391
		c28.068-12.06,47.442-15.373,58.124-9.93L436.864,1044.394z M557.595,1188.806c-5.541,9.554-11.082,19.103-16.623,28.652
		c-6.297,10.235-15.017,16.259-26.15,18.072l0.491-2.495c0.301-5.745-1.467-8.718-5.293-8.918
		c-7.664-0.402-16.219,16.314-25.67,50.14c1.559,2.242,5.582,3.415,12.057,3.512c-2.195,5.167-5.307,11.963-9.35,20.392l-6.482,0.02
		c-8.407,0.043-14.032-2.536-16.877-7.725c-2.207-3.716-3.082-9.883-2.631-18.5c0.677-12.926,11.381-30.603,32.123-53.043
		c20.736-22.434,37.087-33.34,49.06-32.713L557.595,1188.806z M726.625,1271.627c-1.176,10.982-2.354,21.959-3.532,32.936
		c-1.59,11.911-7.106,20.961-16.539,27.145l-0.566-2.479c-2.062-5.371-4.886-7.367-8.463-5.994c-7.164,2.75-8.181,21.5-3.057,56.247
		c2.336,1.414,6.488,0.849,12.443-1.696c0.097,5.613,0.017,13.088-0.247,22.432l-5.913,2.655c-7.663,3.459-13.851,3.391-18.56-0.193
		c-3.528-2.497-6.836-7.775-9.928-15.83c-4.639-12.084-2.05-32.587,7.772-61.522c9.819-28.929,20.32-45.543,31.513-49.839
		L726.625,1271.627z M914.728,1278.537c3.393,10.511,6.781,21.018,10.169,31.525c3.393,11.528,2.034,22.039-4.068,31.526
		l-1.525-2.034c-4.068-4.068-7.46-4.743-10.169-2.034c-5.426,5.426,1.271,22.969,20.085,52.627c2.709,0.342,6.273-1.863,10.678-6.61
		c2.372,5.089,5.339,11.949,8.898,20.593l-4.322,4.831c-5.593,6.276-11.274,8.731-17.034,7.373
		c-4.239-0.846-9.407-4.322-15.509-10.424c-9.153-9.152-15.127-28.935-17.924-59.365c-2.797-30.421,0.04-49.87,8.517-58.348
		L914.728,1278.537z M1089.38,1208.341c7.374,8.223,14.744,16.443,22.113,24.664c7.788,9.152,10.822,19.307,9.106,30.454
		l-2.221-1.238c-5.371-2.062-8.745-1.299-10.118,2.278c-2.75,7.164,10.504,20.466,39.754,39.908
		c2.614-0.79,4.973-4.253,7.066-10.382c4.236,3.684,9.738,8.745,16.505,15.194l-1.984,6.171
		c-2.557,8.009-6.748,12.562-12.562,13.664c-4.216,0.951-10.352-0.122-18.407-3.215c-12.084-4.639-25.589-20.281-40.52-46.942
		c-14.928-26.654-20.248-45.575-15.951-56.767L1089.38,1208.341z M1220.38,1073.177c10.081,4.512,20.157,9.025,30.233,13.537
		c10.837,5.193,17.739,13.236,20.706,24.118l-2.532-0.227c-5.745,0.301-8.517,2.37-8.316,6.197
		c0.402,7.663,17.92,14.424,52.549,20.289c2.067-1.785,2.813-5.908,2.233-12.358c5.369,1.643,12.452,4.028,21.258,7.167l0.698,6.444
		c0.922,8.356-1.055,14.221-5.919,17.592c-3.465,2.584-9.506,4.099-18.124,4.55c-12.926,0.677-31.625-8.12-56.11-26.403
		c-24.479-18.277-37.034-33.399-37.662-45.371L1220.38,1073.177z M1285.079,896.416c11.045,0.022,22.085,0.046,33.125,0.07
		c12.012,0.336,21.589,4.876,28.725,13.611l-2.406,0.822c-5.126,2.612-6.816,5.629-5.077,9.043
		c3.484,6.838,22.237,5.889,56.258-2.839c1.162-2.471,0.167-6.541-2.987-12.198c5.573-0.683,13.014-1.385,22.335-2.099l3.259,5.603
		c4.241,7.259,4.82,13.42,1.748,18.479c-2.115,3.77-7.017,7.611-14.706,11.528c-11.533,5.876-32.194,5.445-61.998-1.298
		c-29.797-6.741-47.417-15.449-52.86-26.131L1285.079,896.416z M1272.29,708.621c10.099-4.473,20.194-8.941,30.29-13.409
		c11.11-4.579,21.706-4.326,31.778,0.75l-1.863,1.73c-3.62,4.471-3.937,7.915-0.96,10.326c5.964,4.829,22.71-3.665,50.24-25.476
		c0.057-2.73-2.509-6.043-7.69-9.929c4.813-2.891,11.326-6.559,19.55-11.002l5.256,3.793c6.827,4.906,9.862,10.299,9.113,16.17
		c-0.399,4.304-3.315,9.807-8.746,16.513c-8.146,10.059-27.196,18.069-57.166,24.031c-29.962,5.961-49.601,5.173-58.918-2.371
		L1272.29,708.621z M1184.222,542.263c7.407-8.194,14.812-16.382,22.217-24.57c8.287-8.702,18.07-12.781,29.336-12.24l-0.999,2.338
		c-1.489,5.557-0.378,8.832,3.323,9.824c7.413,1.986,19.256-12.585,35.534-43.708c-1.059-2.517-4.75-4.501-11.064-5.942
		c3.221-4.598,7.679-10.598,13.385-18.003l6.344,1.328c8.232,1.706,13.199,5.398,14.902,11.065
		c1.387,4.094,0.96,10.308-1.273,18.643c-3.35,12.503-17.495,27.568-42.449,45.205c-24.947,17.633-43.209,24.901-54.789,21.798
		L1184.222,542.263z M1157.789,502.575c-1.875-11.841,7.262-29.243,27.405-52.21c20.148-22.974,36.61-35.467,49.394-37.492
		c8.523-1.35,14.747-1.124,18.674,0.683c5.458,2.287,8.611,7.612,9.447,15.977l0.657,6.448c-7.96,4.901-14.394,8.707-19.303,11.43
		c-0.774-6.43-2.361-10.308-4.753-11.624c-32.653,12.936-48.383,23.191-47.182,30.771c0.599,3.784,3.741,5.232,9.423,4.332
		l2.43-0.749c-0.64,11.261-5.719,20.563-15.239,27.896c-8.917,6.509-17.835,13.018-26.758,19.527L1157.789,502.575z
		 M995.815,400.603c-6.529-10.055-5.26-29.668,3.8-58.843c9.062-29.183,19.019-47.291,29.875-54.341
		c7.237-4.7,13.015-7.025,17.337-6.972c5.917-0.131,10.963,3.451,15.129,10.753l3.223,5.624
		c-5.279,7.715-9.608,13.809-12.985,18.293c-3.322-5.559-6.349-8.457-9.07-8.686c-24.569,25.099-34.767,40.865-30.588,47.301
		c2.087,3.213,5.545,3.258,10.37,0.125l1.915-1.672c3.996,10.548,3.14,21.111-2.576,31.682
		c-5.499,9.573-10.998,19.146-16.502,28.722L995.815,400.603z M806.368,373.328c-10.055-6.529-16.873-24.964-20.462-55.302
		c-3.591-30.346-1.86-50.938,5.189-61.794c4.7-7.237,9.032-11.711,13.002-13.42c5.352-2.526,11.419-1.306,18.195,3.67l5.232,3.826
		c-1.684,9.195-3.161,16.523-4.422,21.993c-5.296-3.727-9.24-5.143-11.819-4.246c-12.236,32.922-15.14,51.473-8.704,55.653
		c3.213,2.087,6.391,0.721,9.524-4.104l1.069-2.307c7.941,8.01,11.455,18.009,10.533,29.991c-1.13,10.982-2.26,21.964-3.393,32.951
		L806.368,373.328z M622.206,425.466c-11.841-1.875-25.568-15.943-41.186-42.198c-15.623-26.261-22.418-45.778-20.393-58.562
		c1.35-8.523,3.488-14.373,6.42-17.549c3.861-4.485,9.9-5.838,18.114-4.048l6.336,1.368c2.201,9.085,3.833,16.38,4.906,21.891
		c-6.354-1.251-10.533-0.94-12.524,0.929c2.212,35.053,7.105,53.181,14.685,54.382c3.784,0.599,6.132-1.941,7.032-7.623l0.039-2.542
		c10.512,4.088,17.79,11.793,21.821,23.114c3.435,10.492,6.869,20.984,10.303,31.482L622.206,425.466z M475.172,548.001
		c-11.58,3.103-29.842-4.165-54.789-21.798c-24.954-17.636-39.099-32.702-42.449-45.205c-2.233-8.335-2.66-14.549-1.273-18.643
		c1.703-5.668,6.67-9.36,14.902-11.065l6.344-1.328c5.706,7.405,10.164,13.405,13.385,18.003
		c-6.314,1.442-10.005,3.425-11.064,5.942c16.278,31.122,28.122,45.694,35.534,43.708c3.701-0.992,4.812-4.267,3.323-9.824
		l-0.999-2.338c11.266-0.541,21.048,3.538,29.336,12.24c7.405,8.188,14.81,16.376,22.217,24.57L475.172,548.001z M390.689,719.747
		c-9.317,7.545-28.956,8.333-58.918,2.371c-29.97-5.962-49.02-13.972-57.166-24.031c-5.43-6.706-8.347-12.209-8.746-16.513
		c-0.749-5.871,2.286-11.263,9.113-16.17l5.256-3.793c8.225,4.443,14.737,8.112,19.55,11.002c-5.182,3.885-7.747,7.198-7.69,9.929
		c27.529,21.811,44.276,30.305,50.239,25.476c2.978-2.411,2.661-5.856-0.96-10.326l-1.863-1.73
		c10.072-5.077,20.668-5.329,31.778-0.75c10.095,4.468,20.191,8.937,30.29,13.409L390.689,719.747z M383.366,911.007
		c-5.443,10.682-23.064,19.39-52.86,26.131c-29.804,6.743-50.465,7.174-61.998,1.298c-7.689-3.918-12.591-7.759-14.706-11.528
		c-3.072-5.058-2.493-11.22,1.748-18.479l3.259-5.603c9.321,0.714,16.763,1.416,22.335,2.099c-3.153,5.657-4.149,9.727-2.987,12.198
		c34.021,8.728,52.774,9.677,56.258,2.839c1.739-3.414,0.049-6.432-5.077-9.043l-2.406-0.822
		c7.136-8.734,16.713-13.275,28.725-13.611c11.04-0.024,22.08-0.048,33.125-0.07L383.366,911.007z M454.468,1088.711
		c-0.627,11.972-13.183,27.094-37.662,45.371c-24.485,18.283-43.184,27.08-56.11,26.403c-8.617-0.452-14.659-1.966-18.124-4.55
		c-4.864-3.372-6.841-9.236-5.919-17.592l0.698-6.444c8.805-3.139,15.889-5.524,21.258-7.167c-0.58,6.45,0.166,10.574,2.233,12.358
		c34.629-5.864,52.147-12.625,52.549-20.289c0.201-3.826-2.571-5.895-8.316-6.197l-2.532,0.227
		c2.967-10.882,9.869-18.925,20.706-24.118c10.076-4.513,20.151-9.025,30.233-13.537L454.468,1088.711z M591.702,1222.131
		c4.296,11.192-1.023,30.114-15.951,56.767c-14.931,26.661-28.436,42.303-40.52,46.942c-8.056,3.092-14.191,4.166-18.407,3.215
		c-5.815-1.102-10.006-5.655-12.562-13.664l-1.984-6.171c6.767-6.449,12.269-11.509,16.505-15.194
		c2.094,6.129,4.452,9.592,7.066,10.382c29.25-19.442,42.504-32.744,39.754-39.908c-1.373-3.577-4.747-4.34-10.118-2.278
		l-2.221,1.238c-1.716-11.148,1.318-21.303,9.106-30.454c7.369-8.221,14.738-16.441,22.113-24.664L591.702,1222.131z
		 M771.338,1288.198c8.477,8.477,11.314,27.926,8.517,58.348c-2.797,30.429-8.771,50.212-17.924,59.365
		c-6.102,6.102-11.27,9.578-15.509,10.424c-5.76,1.359-11.441-1.096-17.034-7.373l-4.322-4.831
		c3.559-8.644,6.527-15.505,8.898-20.593c4.405,4.747,7.969,6.952,10.678,6.61c18.814-29.658,25.511-47.201,20.085-52.627
		c-2.709-2.709-6.102-2.034-10.169,2.034l-1.525,2.034c-6.102-9.486-7.46-19.997-4.068-31.526
		c3.388-10.507,6.777-21.014,10.169-31.525L771.338,1288.198z M962.316,1275.489c11.192,4.296,21.694,20.91,31.513,49.839
		c9.822,28.936,12.41,49.438,7.772,61.522c-3.092,8.056-6.4,13.333-9.928,15.83c-4.71,3.584-10.898,3.652-18.56,0.193l-5.913-2.655
		c-0.264-9.344-0.344-16.819-0.247-22.432c5.955,2.545,10.107,3.11,12.443,1.696c5.124-34.746,4.107-53.496-3.057-56.247
		c-3.577-1.373-6.401,0.624-8.463,5.994l-0.566,2.479c-9.433-6.184-14.949-15.234-16.539-27.145
		c-1.178-10.977-2.356-21.954-3.532-32.936L962.316,1275.489z M1131.613,1186.201c11.972-0.627,28.324,10.279,49.06,32.713
		c20.742,22.439,31.446,40.117,32.123,53.043c0.452,8.617-0.423,14.784-2.631,18.5c-2.845,5.19-8.47,7.768-16.877,7.725l-6.482-0.02
		c-4.042-8.429-7.155-15.225-9.35-20.392c6.476-0.097,10.498-1.27,12.057-3.512c-9.452-33.827-18.007-50.542-25.67-50.14
		c-3.826,0.201-5.594,3.173-5.293,8.918l0.491,2.495c-11.133-1.813-19.853-7.837-26.15-18.072
		c-5.541-9.549-11.082-19.098-16.623-28.652L1131.613,1186.201z M1249.958,1035.773c10.682-5.443,30.056-2.13,58.124,9.93
		c28.076,12.063,45.044,23.858,50.92,35.391c3.917,7.689,5.626,13.678,5.121,17.971c-0.488,5.898-4.578,10.542-12.276,13.922
		l-5.93,2.618c-7.121-6.056-12.729-10.998-16.836-14.826c5.876-2.723,9.074-5.431,9.586-8.113
		c-22.393-27.058-37.007-38.848-43.845-35.364c-3.414,1.739-3.82,5.175-1.208,10.3l1.463,2.079
		c-10.907,2.872-21.324,0.916-31.24-5.873c-8.946-6.47-17.892-12.939-26.84-19.414L1249.958,1035.773z M1296.886,850.215
		c7.545-9.317,26.591-14.171,57.138-14.569c30.555-0.399,50.854,3.475,60.913,11.62c6.706,5.43,10.703,10.207,11.988,14.334
		c1.953,5.586,0.105,11.493-5.552,17.711l-4.352,4.803c-8.969-2.636-16.102-4.87-21.411-6.697c4.261-4.878,6.081-8.652,5.458-11.31
		c-31.462-15.61-49.609-20.438-54.438-14.474c-2.411,2.978-1.385,6.281,3.086,9.901l2.182,1.304
		c-8.797,7.06-19.108,9.51-30.928,7.341c-10.804-2.272-21.608-4.543-32.416-6.818L1296.886,850.215z M1264.284,661.612
		c3.103-11.58,18.528-23.761,46.272-36.55c27.751-12.793,47.87-17.51,60.373-14.16c8.335,2.233,13.929,4.971,16.781,8.219
		c4.057,4.309,4.771,10.456,2.132,18.438l-2.022,6.158c-9.266,1.24-16.691,2.1-22.283,2.59c1.908-6.189,2.036-10.377,0.386-12.552
		c-35.092-1.464-53.633,1.507-55.619,8.92c-0.992,3.701,1.289,6.301,6.846,7.79l2.524,0.304
		c-5.164,10.027-13.588,16.459-25.268,19.286c-10.794,2.319-21.588,4.638-32.387,6.956L1264.284,661.612z M1077.197,292.958
		c1.668-0.146,2.99-0.369,3.967-0.668c-1.801,3.926-3.57,11.543-5.298,22.863c-1.723,11.313-3.57,19.188-5.54,23.629
		c-3.37,7.814-8.985,12.219-16.835,13.223l-1.776,0.281l0.417-3.033l-1.975,2.34l-0.979-1.508
		c-4.506-6.505-4.99-13.626-1.438-21.359c1.983-4.436,6.599-11.078,13.853-19.928c7.256-8.858,11.734-15.27,13.446-19.235
		C1075.47,290.489,1076.19,291.621,1077.197,292.958z M1275.919,437.338c1.583,0.545,2.882,0.879,3.895,1.003
		c-3.242,2.854-7.956,9.093-14.139,18.731c-6.176,9.634-11.066,16.077-14.672,19.333c-6.257,5.768-13.179,7.508-20.758,5.233
		l-1.736-0.465l1.615-2.601l-2.755,1.334l-0.281-1.776c-1.47-7.776,0.983-14.478,7.374-20.097
		c3.615-3.246,10.534-7.436,20.761-12.571c10.232-5.141,16.93-9.177,20.107-12.103
		C1275.346,434.38,1275.542,435.707,1275.919,437.338z M1398.736,650.063c1.224,1.142,2.275,1.975,3.15,2.501
		c-4.123,1.288-10.967,5.071-20.535,11.361c-9.561,6.289-16.648,10.186-21.267,11.694c-8.062,2.725-15.093,1.498-21.092-3.663
		l-1.397-1.131l2.533-1.719l-3.06,0.098l0.465-1.736c1.819-7.702,6.787-12.826,14.911-15.361c4.623-1.495,12.647-2.509,24.079-3.04
		c11.438-0.535,19.199-1.498,23.291-2.879C1399.415,647.128,1399.055,648.419,1398.736,650.063z M1424.411,894.351
		c0.654,1.541,1.275,2.73,1.861,3.566c-4.29-0.5-12.081,0.172-23.381,2.027c-11.292,1.857-19.352,2.534-24.185,2.033
		c-8.473-0.79-14.398-4.77-17.778-11.925l-0.816-1.602l3.014-0.54l-2.835-1.155l1.131-1.397c4.795-6.296,11.417-8.957,19.869-7.968
		c4.831,0.515,12.574,2.852,23.234,7.017c10.667,4.163,18.148,6.441,22.448,6.844
		C1426.226,891.945,1425.371,892.979,1424.411,894.351z M1348.506,1127.962c-0.029,1.674,0.054,3.012,0.249,4.015
		c-3.716-2.202-11.107-4.757-22.184-7.658c-11.071-2.896-18.709-5.557-22.921-7.98c-7.419-4.168-11.213-10.214-11.391-18.125
		l-0.094-1.795l2.973,0.732l-2.12-2.208l1.602-0.816c6.941-3.801,14.073-3.539,21.392,0.802c4.204,2.435,10.327,7.72,18.371,15.86
		c8.052,8.142,13.96,13.265,17.724,15.382C1351.142,1126.503,1349.941,1127.1,1348.506,1127.962z M1184.145,1310.503
		c-0.708,1.517-1.176,2.774-1.405,3.769c-2.499-3.523-8.212-8.863-17.151-16.019c-8.936-7.149-14.832-12.686-17.693-16.613
		c-5.083-6.825-6.089-13.891-3.034-21.191l0.644-1.678l2.418,1.878l-1.039-2.88l1.795-0.094c7.887-0.65,14.296,2.491,19.216,9.434
		c2.85,3.935,6.294,11.253,10.332,21.961c4.044,10.713,7.357,17.797,9.935,21.262
		C1187.147,1310.242,1185.807,1310.299,1184.145,1310.503z M959.748,1410.411c-1.263,1.098-2.202,2.056-2.817,2.872
		c-0.85-4.235-3.897-11.437-9.153-21.61c-5.256-10.166-8.39-17.622-9.407-22.373c-1.867-8.302,0.087-15.167,5.847-20.593
		l1.271-1.271l1.445,2.699l0.222-3.053l1.678,0.644c7.469,2.615,12.047,8.09,13.718,16.435c1.003,4.754,1.173,12.84,0.506,24.265
		c-0.663,11.432-0.517,19.25,0.428,23.465C962.596,1411.394,961.349,1410.901,959.748,1410.411z M714.115,1410.411
		c-1.601,0.489-2.848,0.982-3.741,1.478c0.946-4.214,1.092-12.033,0.428-23.465c-0.667-11.424-0.497-19.511,0.506-24.265
		c1.671-8.344,6.249-13.82,13.718-16.435l1.678-0.644l0.222,3.053l1.445-2.699l1.271,1.271c5.76,5.426,7.715,12.291,5.847,20.593
		c-1.017,4.751-4.151,12.207-9.407,22.373c-5.256,10.173-8.302,17.376-9.153,21.61
		C716.317,1412.467,715.378,1411.51,714.115,1410.411z M489.717,1310.503c-1.661-0.204-3.001-0.261-4.019-0.172
		c2.578-3.465,5.892-10.549,9.935-21.262c4.038-10.708,7.482-18.026,10.332-21.961c4.921-6.943,11.33-10.084,19.216-9.434
		l1.795,0.094l-1.039,2.88l2.418-1.878l0.644,1.678c3.055,7.3,2.048,14.366-3.034,21.191c-2.861,3.927-8.758,9.464-17.693,16.613
		c-8.939,7.156-14.652,12.496-17.151,16.019C490.893,1313.277,490.425,1312.02,489.717,1310.503z M325.356,1127.962
		c-1.435-0.862-2.636-1.459-3.601-1.791c3.765-2.117,9.673-7.24,17.724-15.382c8.044-8.14,14.167-13.425,18.371-15.86
		c7.319-4.341,14.452-4.604,21.392-0.802l1.602,0.816l-2.121,2.208l2.973-0.732l-0.094,1.795
		c-0.178,7.911-3.972,13.957-11.391,18.125c-4.211,2.423-11.85,5.083-22.921,7.98c-11.077,2.902-18.468,5.457-22.184,7.658
		C325.302,1130.974,325.386,1129.636,325.356,1127.962z M249.451,894.351c-0.96-1.371-1.814-2.405-2.561-3.101
		c4.3-0.403,11.781-2.68,22.449-6.844c10.659-4.164,18.402-6.502,23.234-7.017c8.452-0.989,15.075,1.672,19.869,7.968l1.131,1.397
		l-2.835,1.155l3.014,0.54l-0.816,1.602c-3.381,7.155-9.305,11.135-17.778,11.925c-4.833,0.501-12.893-0.176-24.185-2.033
		c-11.3-1.855-19.091-2.527-23.381-2.027C248.177,897.08,248.797,895.892,249.451,894.351z M275.127,650.063
		c-0.319-1.643-0.679-2.935-1.079-3.875c4.092,1.381,11.853,2.344,23.291,2.879c11.431,0.531,19.456,1.545,24.079,3.04
		c8.124,2.534,13.091,7.659,14.911,15.361l0.465,1.736l-3.06-0.098l2.533,1.719l-1.397,1.131c-5.999,5.161-13.03,6.388-21.092,3.663
		c-4.619-1.508-11.707-5.404-21.267-11.694c-9.568-6.29-16.413-10.073-20.535-11.361
		C272.852,652.038,273.903,651.204,275.127,650.063z M397.944,437.338c0.377-1.631,0.573-2.958,0.591-3.979
		c3.177,2.926,9.875,6.962,20.107,12.103c10.227,5.135,17.145,9.325,20.761,12.571c6.391,5.619,8.844,12.322,7.374,20.097
		l-0.281,1.776l-2.756-1.334l1.615,2.601l-1.736,0.465c-7.579,2.275-14.501,0.536-20.758-5.233
		c-3.606-3.256-8.496-9.699-14.672-19.333c-6.183-9.638-10.896-15.878-14.139-18.731
		C395.062,438.217,396.361,437.883,397.944,437.338z M596.665,292.958c1.008-1.337,1.727-2.469,2.158-3.394
		c1.712,3.965,6.19,10.377,13.446,19.235c7.254,8.851,11.87,15.492,13.853,19.928c3.552,7.733,3.068,14.854-1.438,21.359
		l-0.979,1.508l-1.975-2.34l0.417,3.033l-1.776-0.281c-7.85-1.004-13.466-5.409-16.835-13.223c-1.97-4.441-3.817-12.316-5.54-23.629
		c-1.728-11.32-3.496-18.937-5.298-22.863C593.675,292.589,594.998,292.812,596.665,292.958z M836.931,241.888
		c1.464-0.811,2.582-1.553,3.352-2.223c-0.049,4.319,1.434,11.997,4.46,23.041c3.027,11.036,4.543,18.981,4.55,23.84
		c0.1,8.509-3.239,14.817-10.001,18.927l-1.508,0.979l-0.852-2.941l-0.852,2.941l-1.508-0.979
		c-6.762-4.11-10.101-10.418-10.001-18.927c0.007-4.859,1.522-12.804,4.55-23.84c3.026-11.044,4.508-18.722,4.46-23.041
		C834.35,240.335,835.467,241.077,836.931,241.888z M1049.189,355.865c4.548-1.633,9.439-4.074,14.674-7.322
		c11.688-7.437,18.775-11.71,21.265-12.833c0.465,5.99,0.65,10.209,0.548,12.654c-0.231,4.644-1.29,8.696-3.172,12.151
		c-5.495,2.082-20.673,10.43-45.54,25.05c-0.454,0.265-0.904,0.527-1.349,0.787c-0.105-0.505-0.211-1.014-0.318-1.529
		c-5.774-28.263-9.727-45.129-11.856-50.605c1.308-3.71,3.612-7.209,6.908-10.488c1.749-1.712,5.008-4.398,9.771-8.06
		c0.832,2.601,2.398,10.728,4.693,24.39C1045.901,346.124,1047.359,351.392,1049.189,355.865z M1224.746,483.414
		c4.819,0.358,10.281,0.117,16.383-0.721c13.703-2.04,21.915-3.061,24.646-3.074c-2.011,5.661-3.559,9.591-4.646,11.783
		c-2.1,4.148-4.716,7.42-7.84,9.811c-5.866-0.333-23.128,1.119-51.792,4.362c-0.522,0.057-1.04,0.114-1.552,0.17
		c0.109-0.504,0.22-1.013,0.331-1.526c6.221-28.168,9.469-45.183,9.751-51.052c2.704-2.857,6.231-5.116,10.576-6.772
		c2.294-0.852,6.364-1.981,12.204-3.389c-0.298,2.715-2.172,10.776-5.633,24.19C1225.704,473.178,1224.893,478.584,1224.746,483.414
		z M1333.246,671.342c4.257,2.288,9.344,4.289,15.26,6.005c13.348,3.71,21.266,6.117,23.766,7.216
		c-4.14,4.354-7.152,7.314-9.037,8.875c-3.606,2.935-7.326,4.86-11.152,5.774c-5.224-2.69-21.584-8.384-49.088-17.081
		c-0.5-0.16-0.996-0.319-1.487-0.476c0.305-0.416,0.613-0.836,0.923-1.259c17.14-23.203,27.029-37.425,29.673-42.672
		c3.633-1.51,7.774-2.14,12.416-1.884c2.442,0.154,6.619,0.779,12.527,1.868c-1.376,2.359-6.368,8.961-14.985,19.807
		C1338.285,662.38,1335.345,666.989,1333.246,671.342z M1355.929,887.153c2.958,3.821,6.792,7.718,11.498,11.693
		c10.685,8.818,16.939,14.238,18.776,16.259c-5.553,2.293-9.509,3.773-11.865,4.432c-4.488,1.215-8.67,1.46-12.537,0.738
		c-3.678-4.583-16.308-16.438-37.897-35.57c-0.392-0.35-0.78-0.697-1.165-1.04c0.448-0.256,0.9-0.514,1.356-0.775
		c25.095-14.225,39.914-23.196,44.464-26.914c3.933,0.098,7.972,1.207,12.109,3.329c2.168,1.134,5.73,3.404,10.685,6.802
		c-2.217,1.595-9.462,5.596-21.746,12C1364.177,881.015,1359.617,884.03,1355.929,887.153z M1288.872,1093.532
		c1.148,4.694,3.065,9.813,5.748,15.359c6.174,12.402,9.684,19.897,10.54,22.49c-6.005-0.163-10.221-0.421-12.642-0.778
		c-4.594-0.716-8.514-2.192-11.753-4.425c-1.496-5.682-8.212-21.65-20.153-47.909c-0.216-0.479-0.43-0.954-0.641-1.424
		c0.513-0.052,1.031-0.104,1.554-0.156c28.712-2.788,45.898-4.956,51.567-6.502c3.553,1.689,6.792,4.345,9.708,7.966
		c1.52,1.918,3.85,5.44,6.995,10.56c-2.674,0.555-10.92,1.264-24.747,2.117C1298.903,1091.28,1293.511,1092.18,1288.872,1093.532z
		 M1143.671,1254.795c-0.86,4.755-1.191,10.212-0.996,16.369c0.596,13.841,0.754,22.115,0.481,24.833
		c-5.42-2.592-9.167-4.542-11.233-5.852c-3.906-2.522-6.886-5.466-8.937-8.823c0.944-5.799,1.304-23.118,1.076-51.964
		c-0.002-0.525-0.005-1.046-0.007-1.562c0.49,0.161,0.984,0.324,1.483,0.489c27.363,9.131,43.946,14.141,49.753,15.035
		c2.559,2.988,4.437,6.732,5.629,11.226c0.608,2.37,1.305,6.536,2.095,12.492c-2.669-0.58-10.49-3.287-23.469-8.131
		C1153.751,1256.817,1148.459,1255.446,1143.671,1254.795z M945.431,1343.056c-2.72,3.994-5.242,8.844-7.568,14.549
		c-5.085,12.887-8.306,20.51-9.661,22.881c-3.897-4.572-6.527-7.877-7.881-9.915c-2.542-3.893-4.068-7.794-4.576-11.695
		c3.222-4.914,10.595-20.589,22.119-47.034c0.212-0.481,0.421-0.957,0.629-1.429c0.382,0.347,0.767,0.697,1.156,1.05
		c21.284,19.471,34.395,30.792,39.337,33.971c1.122,3.771,1.315,7.955,0.576,12.545c-0.409,2.413-1.467,6.502-3.167,12.264
		c-2.202-1.616-8.246-7.269-18.133-16.974C953.817,1349.004,949.541,1345.599,945.431,1343.056z M728.431,1343.056
		c-4.109,2.543-8.386,5.948-12.831,10.213c-9.887,9.704-15.93,15.358-18.133,16.974c-1.7-5.762-2.758-9.851-3.167-12.264
		c-0.739-4.591-0.546-8.775,0.576-12.545c4.942-3.179,18.053-14.5,39.337-33.971c0.389-0.353,0.774-0.703,1.156-1.05
		c0.208,0.472,0.417,0.948,0.629,1.429c11.524,26.445,18.897,42.12,22.119,47.034c-0.508,3.901-2.034,7.802-4.576,11.695
		c-1.355,2.038-3.984,5.343-7.881,9.915c-1.355-2.372-4.576-9.995-9.661-22.881C733.673,1351.901,731.151,1347.051,728.431,1343.056
		z M530.192,1254.795c-4.788,0.651-10.08,2.023-15.875,4.111c-12.979,4.844-20.8,7.551-23.469,8.131
		c0.79-5.955,1.487-10.121,2.095-12.492c1.192-4.494,3.07-8.238,5.629-11.226c5.807-0.894,22.39-5.904,49.753-15.035
		c0.499-0.165,0.993-0.328,1.483-0.489c-0.002,0.516-0.004,1.036-0.007,1.562c-0.228,28.846,0.132,46.165,1.076,51.964
		c-2.051,3.357-5.031,6.3-8.937,8.823c-2.066,1.311-5.813,3.26-11.233,5.852c-0.273-2.718-0.115-10.992,0.481-24.833
		C531.383,1265.006,531.052,1259.55,530.192,1254.795z M384.991,1093.532c-4.639-1.353-10.031-2.252-16.175-2.701
		c-13.827-0.854-22.073-1.562-24.747-2.117c3.144-5.119,5.475-8.642,6.995-10.56c2.917-3.621,6.155-6.277,9.708-7.966
		c5.669,1.546,22.855,3.714,51.567,6.502c0.523,0.053,1.041,0.105,1.554,0.156c-0.212,0.47-0.426,0.945-0.641,1.424
		c-11.941,26.259-18.657,42.227-20.153,47.909c-3.239,2.232-7.159,3.709-11.753,4.425c-2.421,0.357-6.637,0.614-12.642,0.778
		c0.856-2.594,4.365-10.089,10.54-22.49C381.925,1103.346,383.842,1098.226,384.991,1093.532z M317.934,887.153
		c-3.688-3.123-8.248-6.138-13.678-9.047c-12.285-6.404-19.529-10.405-21.746-12c4.955-3.398,8.516-5.668,10.685-6.802
		c4.137-2.122,8.176-3.231,12.109-3.329c4.55,3.718,19.369,12.689,44.464,26.914c0.456,0.261,0.908,0.519,1.356,0.775
		c-0.385,0.343-0.773,0.69-1.165,1.04c-21.589,19.132-34.219,30.988-37.897,35.57c-3.867,0.722-8.049,0.477-12.537-0.738
		c-2.357-0.659-6.313-2.138-11.865-4.432c1.837-2.021,8.091-7.441,18.776-16.259C311.142,894.871,314.976,890.974,317.934,887.153z
		 M340.617,671.342c-2.099-4.353-5.039-8.962-8.816-13.828c-8.618-10.847-13.609-17.448-14.985-19.807
		c5.908-1.089,10.085-1.714,12.528-1.868c4.643-0.255,8.784,0.374,12.416,1.884c2.645,5.247,12.534,19.47,29.673,42.672
		c0.311,0.424,0.618,0.844,0.923,1.259c-0.491,0.157-0.987,0.316-1.487,0.476c-27.504,8.697-43.865,14.391-49.088,17.081
		c-3.826-0.913-7.547-2.838-11.153-5.774c-1.885-1.56-4.897-4.521-9.037-8.875c2.5-1.099,10.418-3.507,23.766-7.216
		C331.273,675.63,336.36,673.629,340.617,671.342z M449.117,483.414c-0.147-4.83-0.958-10.236-2.429-16.218
		c-3.461-13.414-5.335-21.475-5.633-24.19c5.84,1.409,9.91,2.537,12.204,3.389c4.345,1.655,7.872,3.914,10.576,6.772
		c0.282,5.869,3.531,22.884,9.751,51.052c0.111,0.513,0.222,1.022,0.331,1.526c-0.513-0.056-1.03-0.113-1.552-0.17
		c-28.664-3.242-45.926-4.695-51.792-4.362c-3.124-2.391-5.74-5.662-7.84-9.811c-1.088-2.192-2.635-6.122-4.646-11.783
		c2.731,0.013,10.944,1.034,24.646,3.074C438.836,483.531,444.297,483.772,449.117,483.414z M624.673,355.865
		c1.83-4.472,3.288-9.741,4.377-15.804c2.294-13.662,3.861-21.789,4.693-24.39c4.763,3.662,8.022,6.348,9.771,8.06
		c3.296,3.279,5.599,6.778,6.908,10.488c-2.13,5.476-6.082,22.342-11.856,50.605c-0.107,0.514-0.213,1.024-0.318,1.529
		c-0.445-0.26-0.895-0.522-1.349-0.787c-24.867-14.621-40.046-22.968-45.54-25.05c-1.882-3.455-2.94-7.507-3.172-12.151
		c-0.102-2.445,0.083-6.665,0.548-12.654c2.49,1.122,9.577,5.396,21.265,12.833C615.234,351.79,620.125,354.232,624.673,355.865z
		 M836.931,310.748c3.491-3.341,6.966-7.561,10.427-12.657c7.653-11.548,12.389-18.335,14.207-20.373
		c2.861,5.283,4.746,9.062,5.648,11.337c1.677,4.337,2.358,8.469,2.045,12.391c-4.173,4.137-14.644,17.937-31.414,41.407
		c-0.307,0.426-0.611,0.849-0.912,1.267c-0.301-0.418-0.605-0.841-0.912-1.267c-16.77-23.471-27.241-37.271-31.414-41.407
		c-0.314-3.921,0.367-8.054,2.045-12.391c0.901-2.275,2.786-6.055,5.648-11.337c1.818,2.038,6.554,8.825,14.207,20.373
		C829.965,303.186,833.44,307.406,836.931,310.748z"/>
</g>
</svg>
